<mxfile host="Electron" agent="Mozilla/5.0 (Windows NT 10.0; Win64; x64) AppleWebKit/537.36 (KHTML, like Gecko) draw.io/25.0.1 Chrome/128.0.6613.186 Electron/32.2.6 Safari/537.36" version="25.0.1">
  <diagram name="Page-1" id="FC-in8RfcpcExGRTbEjO">
    <mxGraphModel dx="1100" dy="1115" grid="0" gridSize="10" guides="1" tooltips="1" connect="1" arrows="1" fold="1" page="0" pageScale="1" pageWidth="850" pageHeight="1100" math="0" shadow="0">
      <root>
        <mxCell id="0" />
        <mxCell id="1" parent="0" />
        <mxCell id="AUimS9okSakmVEjvTTLS-141" value="" style="rounded=0;whiteSpace=wrap;html=1;" parent="1" vertex="1">
          <mxGeometry x="838" y="4980" width="699" height="491" as="geometry" />
        </mxCell>
        <mxCell id="AUimS9okSakmVEjvTTLS-138" value="" style="rounded=0;whiteSpace=wrap;html=1;" parent="1" vertex="1">
          <mxGeometry x="829" y="4426" width="699" height="491" as="geometry" />
        </mxCell>
        <mxCell id="AUimS9okSakmVEjvTTLS-126" value="" style="rounded=0;whiteSpace=wrap;html=1;" parent="1" vertex="1">
          <mxGeometry x="834" y="3840" width="699" height="491" as="geometry" />
        </mxCell>
        <mxCell id="AUimS9okSakmVEjvTTLS-114" value="" style="rounded=0;whiteSpace=wrap;html=1;" parent="1" vertex="1">
          <mxGeometry x="826" y="3176" width="699" height="491" as="geometry" />
        </mxCell>
        <mxCell id="AUimS9okSakmVEjvTTLS-84" value="" style="rounded=0;whiteSpace=wrap;html=1;" parent="1" vertex="1">
          <mxGeometry x="829" y="2483" width="699" height="491" as="geometry" />
        </mxCell>
        <mxCell id="AUimS9okSakmVEjvTTLS-80" value="" style="rounded=0;whiteSpace=wrap;html=1;" parent="1" vertex="1">
          <mxGeometry x="804" y="1863" width="721" height="491" as="geometry" />
        </mxCell>
        <mxCell id="AUimS9okSakmVEjvTTLS-68" value="" style="rounded=0;whiteSpace=wrap;html=1;" parent="1" vertex="1">
          <mxGeometry x="795" y="1289" width="699" height="491" as="geometry" />
        </mxCell>
        <mxCell id="AUimS9okSakmVEjvTTLS-66" value="" style="rounded=0;whiteSpace=wrap;html=1;" parent="1" vertex="1">
          <mxGeometry x="783" y="692" width="762" height="560" as="geometry" />
        </mxCell>
        <mxCell id="AUimS9okSakmVEjvTTLS-4" value="&lt;font style=&quot;font-size: 19px;&quot;&gt;:Constituency Connect System&lt;/font&gt;" style="shape=umlLifeline;perimeter=lifelinePerimeter;whiteSpace=wrap;html=1;container=1;dropTarget=0;collapsible=0;recursiveResize=0;outlineConnect=0;portConstraint=eastwest;newEdgeStyle={&quot;curved&quot;:0,&quot;rounded&quot;:0};strokeWidth=2;size=50;" parent="1" vertex="1">
          <mxGeometry x="479" y="-92" width="175" height="330" as="geometry" />
        </mxCell>
        <mxCell id="AUimS9okSakmVEjvTTLS-11" value="&lt;font style=&quot;font-size: 19px;&quot;&gt;:Constituency Connect System&lt;/font&gt;" style="shape=umlLifeline;perimeter=lifelinePerimeter;whiteSpace=wrap;html=1;container=1;dropTarget=0;collapsible=0;recursiveResize=0;outlineConnect=0;portConstraint=eastwest;newEdgeStyle={&quot;curved&quot;:0,&quot;rounded&quot;:0};strokeWidth=2;size=50;" parent="1" vertex="1">
          <mxGeometry x="1173" y="834" width="175" height="375" as="geometry" />
        </mxCell>
        <mxCell id="AUimS9okSakmVEjvTTLS-12" value="" style="group;strokeWidth=2;" parent="1" vertex="1" connectable="0">
          <mxGeometry x="881" y="808" width="114" height="402" as="geometry" />
        </mxCell>
        <mxCell id="AUimS9okSakmVEjvTTLS-13" value="" style="shape=umlLifeline;perimeter=lifelinePerimeter;whiteSpace=wrap;html=1;container=1;dropTarget=0;collapsible=0;recursiveResize=0;outlineConnect=0;portConstraint=eastwest;newEdgeStyle={&quot;curved&quot;:0,&quot;rounded&quot;:0};participant=umlActor;strokeWidth=2;" parent="AUimS9okSakmVEjvTTLS-12" vertex="1">
          <mxGeometry x="44" width="20" height="402" as="geometry" />
        </mxCell>
        <mxCell id="AUimS9okSakmVEjvTTLS-14" value="&lt;font style=&quot;font-size: 19px;&quot;&gt;Constituent&lt;/font&gt;" style="text;html=1;align=center;verticalAlign=middle;resizable=0;points=[];autosize=1;strokeColor=default;fillColor=default;strokeWidth=2;" parent="AUimS9okSakmVEjvTTLS-12" vertex="1">
          <mxGeometry x="-1" y="40.530433925049316" width="114" height="35" as="geometry" />
        </mxCell>
        <mxCell id="AUimS9okSakmVEjvTTLS-18" value="" style="group;strokeWidth=2;" parent="1" vertex="1" connectable="0">
          <mxGeometry x="198" y="-117" width="129" height="390" as="geometry" />
        </mxCell>
        <mxCell id="AUimS9okSakmVEjvTTLS-19" value="" style="shape=umlLifeline;perimeter=lifelinePerimeter;whiteSpace=wrap;html=1;container=1;dropTarget=0;collapsible=0;recursiveResize=0;outlineConnect=0;portConstraint=eastwest;newEdgeStyle={&quot;curved&quot;:0,&quot;rounded&quot;:0};participant=umlActor;strokeWidth=2;" parent="AUimS9okSakmVEjvTTLS-18" vertex="1">
          <mxGeometry x="44" width="20" height="390" as="geometry" />
        </mxCell>
        <mxCell id="AUimS9okSakmVEjvTTLS-20" value="&lt;font style=&quot;font-size: 19px;&quot;&gt;Representative&lt;/font&gt;" style="text;html=1;align=center;verticalAlign=middle;resizable=0;points=[];autosize=1;strokeColor=default;fillColor=default;strokeWidth=2;" parent="AUimS9okSakmVEjvTTLS-18" vertex="1">
          <mxGeometry x="-11" y="40.7" width="146" height="35" as="geometry" />
        </mxCell>
        <mxCell id="AUimS9okSakmVEjvTTLS-21" value="" style="group;strokeWidth=2;" parent="1" vertex="1" connectable="0">
          <mxGeometry x="338" y="-117" width="114" height="390" as="geometry" />
        </mxCell>
        <mxCell id="AUimS9okSakmVEjvTTLS-22" value="" style="shape=umlLifeline;perimeter=lifelinePerimeter;whiteSpace=wrap;html=1;container=1;dropTarget=0;collapsible=0;recursiveResize=0;outlineConnect=0;portConstraint=eastwest;newEdgeStyle={&quot;curved&quot;:0,&quot;rounded&quot;:0};participant=umlActor;strokeWidth=2;" parent="AUimS9okSakmVEjvTTLS-21" vertex="1">
          <mxGeometry x="44" width="20" height="390" as="geometry" />
        </mxCell>
        <mxCell id="AUimS9okSakmVEjvTTLS-23" value="&lt;font style=&quot;font-size: 19px;&quot;&gt;Constituent&lt;/font&gt;" style="text;html=1;align=center;verticalAlign=middle;resizable=0;points=[];autosize=1;strokeColor=default;fillColor=default;strokeWidth=2;" parent="AUimS9okSakmVEjvTTLS-21" vertex="1">
          <mxGeometry x="-1" y="39.7" width="114" height="35" as="geometry" />
        </mxCell>
        <mxCell id="AUimS9okSakmVEjvTTLS-26" value="" style="endArrow=none;html=1;rounded=0;dashed=1;startArrow=classic;startFill=1;strokeWidth=2;" parent="1" edge="1">
          <mxGeometry width="50" height="50" relative="1" as="geometry">
            <mxPoint x="683" y="-86" as="sourcePoint" />
            <mxPoint x="789" y="-86" as="targetPoint" />
          </mxGeometry>
        </mxCell>
        <mxCell id="AUimS9okSakmVEjvTTLS-27" value="" style="endArrow=none;html=1;rounded=0;startArrow=classic;startFill=1;strokeWidth=2;" parent="1" source="AUimS9okSakmVEjvTTLS-11" edge="1">
          <mxGeometry width="50" height="50" relative="1" as="geometry">
            <mxPoint x="1180.5" y="947" as="sourcePoint" />
            <mxPoint x="935.1304347826087" y="947" as="targetPoint" />
          </mxGeometry>
        </mxCell>
        <mxCell id="AUimS9okSakmVEjvTTLS-28" value="&lt;font style=&quot;font-size: 20px;&quot;&gt;&lt;b&gt;initiateComplaint()&lt;/b&gt;&lt;/font&gt;" style="text;html=1;align=center;verticalAlign=middle;resizable=0;points=[];autosize=1;strokeColor=none;fillColor=none;" parent="1" vertex="1">
          <mxGeometry x="998" y="912" width="194" height="36" as="geometry" />
        </mxCell>
        <mxCell id="AUimS9okSakmVEjvTTLS-29" value="&lt;font style=&quot;font-size: 20px;&quot;&gt;&lt;b&gt;initiateComplaint()&lt;/b&gt;&lt;/font&gt;" style="text;html=1;align=center;verticalAlign=middle;resizable=0;points=[];autosize=1;strokeColor=none;fillColor=none;" parent="1" vertex="1">
          <mxGeometry x="760" y="-141" width="194" height="36" as="geometry" />
        </mxCell>
        <mxCell id="AUimS9okSakmVEjvTTLS-31" value="" style="endArrow=none;html=1;rounded=0;dashed=1;startArrow=classic;startFill=1;strokeWidth=2;" parent="1" edge="1">
          <mxGeometry width="50" height="50" relative="1" as="geometry">
            <mxPoint x="935.3749999999998" y="1052.5000000000002" as="sourcePoint" />
            <mxPoint x="1259.5" y="1052.5000000000002" as="targetPoint" />
          </mxGeometry>
        </mxCell>
        <mxCell id="AUimS9okSakmVEjvTTLS-32" value="&lt;font style=&quot;font-size: 20px;&quot;&gt;&lt;b&gt;confirmComplaintSubmission()&lt;/b&gt;&lt;/font&gt;" style="text;html=1;align=center;verticalAlign=middle;resizable=0;points=[];autosize=1;strokeColor=none;fillColor=none;" parent="1" vertex="1">
          <mxGeometry x="941" y="1015" width="316" height="36" as="geometry" />
        </mxCell>
        <mxCell id="AUimS9okSakmVEjvTTLS-33" value="" style="endArrow=none;html=1;rounded=0;startArrow=classic;startFill=1;strokeWidth=2;" parent="1" edge="1">
          <mxGeometry width="50" height="50" relative="1" as="geometry">
            <mxPoint x="1259.5" y="1091" as="sourcePoint" />
            <mxPoint x="935.710144927536" y="1091" as="targetPoint" />
          </mxGeometry>
        </mxCell>
        <mxCell id="AUimS9okSakmVEjvTTLS-34" value="&lt;font style=&quot;font-size: 20px;&quot;&gt;&lt;b&gt;submitComplaint()&lt;/b&gt;&lt;/font&gt;" style="text;html=1;align=center;verticalAlign=middle;resizable=0;points=[];autosize=1;strokeColor=none;fillColor=none;" parent="1" vertex="1">
          <mxGeometry x="998" y="1056" width="195" height="36" as="geometry" />
        </mxCell>
        <mxCell id="AUimS9okSakmVEjvTTLS-36" value="&lt;font style=&quot;font-size: 20px;&quot;&gt;&lt;b&gt;routeComplaint()&lt;/b&gt;&lt;/font&gt;" style="text;html=1;align=center;verticalAlign=middle;resizable=0;points=[];autosize=1;strokeColor=none;fillColor=none;" parent="1" vertex="1">
          <mxGeometry x="1261" y="1085" width="179" height="36" as="geometry" />
        </mxCell>
        <mxCell id="AUimS9okSakmVEjvTTLS-38" value="" style="endArrow=classic;html=1;rounded=1;curved=0;strokeWidth=2;" parent="1" edge="1">
          <mxGeometry width="50" height="50" relative="1" as="geometry">
            <mxPoint x="1261.3076923076924" y="1120" as="sourcePoint" />
            <mxPoint x="1261.3076923076924" y="1155" as="targetPoint" />
            <Array as="points">
              <mxPoint x="1296" y="1120" />
              <mxPoint x="1296" y="1138" />
              <mxPoint x="1296" y="1155" />
              <mxPoint x="1287" y="1155" />
            </Array>
          </mxGeometry>
        </mxCell>
        <mxCell id="AUimS9okSakmVEjvTTLS-39" value="" style="endArrow=none;html=1;rounded=0;dashed=1;startArrow=classic;startFill=1;strokeWidth=2;" parent="1" edge="1">
          <mxGeometry width="50" height="50" relative="1" as="geometry">
            <mxPoint x="935.2" y="1195" as="sourcePoint" />
            <mxPoint x="1260" y="1195" as="targetPoint" />
          </mxGeometry>
        </mxCell>
        <mxCell id="AUimS9okSakmVEjvTTLS-40" value="&lt;font style=&quot;font-size: 20px;&quot;&gt;&lt;b&gt;ok&lt;/b&gt;&lt;/font&gt;" style="text;html=1;align=center;verticalAlign=middle;resizable=0;points=[];autosize=1;strokeColor=none;fillColor=none;" parent="1" vertex="1">
          <mxGeometry x="1082" y="1158" width="41" height="36" as="geometry" />
        </mxCell>
        <mxCell id="AUimS9okSakmVEjvTTLS-41" value="&lt;font style=&quot;font-size: 19px;&quot;&gt;:Constituency Connect System&lt;/font&gt;" style="shape=umlLifeline;perimeter=lifelinePerimeter;whiteSpace=wrap;html=1;container=1;dropTarget=0;collapsible=0;recursiveResize=0;outlineConnect=0;portConstraint=eastwest;newEdgeStyle={&quot;curved&quot;:0,&quot;rounded&quot;:0};strokeWidth=2;size=50;" parent="1" vertex="1">
          <mxGeometry x="1173" y="1514" width="175" height="219" as="geometry" />
        </mxCell>
        <mxCell id="AUimS9okSakmVEjvTTLS-42" value="" style="group;strokeWidth=2;" parent="1" vertex="1" connectable="0">
          <mxGeometry x="881" y="1488" width="114" height="257" as="geometry" />
        </mxCell>
        <mxCell id="AUimS9okSakmVEjvTTLS-43" value="" style="shape=umlLifeline;perimeter=lifelinePerimeter;whiteSpace=wrap;html=1;container=1;dropTarget=0;collapsible=0;recursiveResize=0;outlineConnect=0;portConstraint=eastwest;newEdgeStyle={&quot;curved&quot;:0,&quot;rounded&quot;:0};participant=umlActor;strokeWidth=2;" parent="AUimS9okSakmVEjvTTLS-42" vertex="1">
          <mxGeometry x="44" width="20" height="248" as="geometry" />
        </mxCell>
        <mxCell id="AUimS9okSakmVEjvTTLS-44" value="&lt;font style=&quot;font-size: 19px;&quot;&gt;Constituent&lt;/font&gt;" style="text;html=1;align=center;verticalAlign=middle;resizable=0;points=[];autosize=1;strokeColor=default;fillColor=default;strokeWidth=2;" parent="AUimS9okSakmVEjvTTLS-42" vertex="1">
          <mxGeometry x="-1" y="40.86167652859961" width="114" height="35" as="geometry" />
        </mxCell>
        <mxCell id="AUimS9okSakmVEjvTTLS-45" value="" style="endArrow=none;html=1;rounded=0;startArrow=classic;startFill=1;strokeWidth=2;" parent="1" source="AUimS9okSakmVEjvTTLS-41" edge="1">
          <mxGeometry width="50" height="50" relative="1" as="geometry">
            <mxPoint x="1180.5" y="1627" as="sourcePoint" />
            <mxPoint x="935.1304347826087" y="1627" as="targetPoint" />
          </mxGeometry>
        </mxCell>
        <mxCell id="AUimS9okSakmVEjvTTLS-46" value="&lt;font style=&quot;font-size: 20px;&quot;&gt;&lt;b&gt;trackComplaint(complaintId)&lt;/b&gt;&lt;/font&gt;" style="text;html=1;align=center;verticalAlign=middle;resizable=0;points=[];autosize=1;strokeColor=none;fillColor=none;" parent="1" vertex="1">
          <mxGeometry x="951" y="1592" width="289" height="36" as="geometry" />
        </mxCell>
        <mxCell id="AUimS9okSakmVEjvTTLS-47" value="" style="endArrow=none;html=1;rounded=0;dashed=1;startArrow=classic;startFill=1;strokeWidth=2;" parent="1" edge="1">
          <mxGeometry width="50" height="50" relative="1" as="geometry">
            <mxPoint x="935.3103448275863" y="1706" as="sourcePoint" />
            <mxPoint x="1259.5000000000002" y="1706" as="targetPoint" />
          </mxGeometry>
        </mxCell>
        <mxCell id="AUimS9okSakmVEjvTTLS-51" value="&lt;font style=&quot;font-size: 20px;&quot;&gt;&lt;b&gt;retrieveComplaint()&lt;/b&gt;&lt;/font&gt;" style="text;html=1;align=center;verticalAlign=middle;resizable=0;points=[];autosize=1;strokeColor=none;fillColor=none;" parent="1" vertex="1">
          <mxGeometry x="1261" y="1616" width="201" height="36" as="geometry" />
        </mxCell>
        <mxCell id="AUimS9okSakmVEjvTTLS-52" value="" style="endArrow=classic;html=1;rounded=1;curved=0;strokeWidth=2;" parent="1" edge="1">
          <mxGeometry width="50" height="50" relative="1" as="geometry">
            <mxPoint x="1261.3076923076924" y="1652" as="sourcePoint" />
            <mxPoint x="1261.3076923076924" y="1687" as="targetPoint" />
            <Array as="points">
              <mxPoint x="1296" y="1652" />
              <mxPoint x="1296" y="1670" />
              <mxPoint x="1296" y="1687" />
              <mxPoint x="1287" y="1687" />
            </Array>
          </mxGeometry>
        </mxCell>
        <mxCell id="AUimS9okSakmVEjvTTLS-54" value="&lt;font style=&quot;font-size: 20px;&quot;&gt;&lt;b&gt;displayComplaintStatus()&lt;/b&gt;&lt;/font&gt;" style="text;html=1;align=center;verticalAlign=middle;resizable=0;points=[];autosize=1;strokeColor=none;fillColor=none;" parent="1" vertex="1">
          <mxGeometry x="966" y="1673" width="259" height="36" as="geometry" />
        </mxCell>
        <mxCell id="AUimS9okSakmVEjvTTLS-55" value="&lt;font style=&quot;font-size: 19px;&quot;&gt;:Constituency Connect System&lt;/font&gt;" style="shape=umlLifeline;perimeter=lifelinePerimeter;whiteSpace=wrap;html=1;container=1;dropTarget=0;collapsible=0;recursiveResize=0;outlineConnect=0;portConstraint=eastwest;newEdgeStyle={&quot;curved&quot;:0,&quot;rounded&quot;:0};strokeWidth=2;size=50;" parent="1" vertex="1">
          <mxGeometry x="1153" y="2064" width="175" height="219" as="geometry" />
        </mxCell>
        <mxCell id="AUimS9okSakmVEjvTTLS-56" value="" style="group;strokeWidth=2;" parent="1" vertex="1" connectable="0">
          <mxGeometry x="861" y="2038" width="114" height="257" as="geometry" />
        </mxCell>
        <mxCell id="AUimS9okSakmVEjvTTLS-57" value="" style="shape=umlLifeline;perimeter=lifelinePerimeter;whiteSpace=wrap;html=1;container=1;dropTarget=0;collapsible=0;recursiveResize=0;outlineConnect=0;portConstraint=eastwest;newEdgeStyle={&quot;curved&quot;:0,&quot;rounded&quot;:0};participant=umlActor;strokeWidth=2;" parent="AUimS9okSakmVEjvTTLS-56" vertex="1">
          <mxGeometry x="44" width="20" height="248" as="geometry" />
        </mxCell>
        <mxCell id="AUimS9okSakmVEjvTTLS-58" value="&lt;font style=&quot;font-size: 19px;&quot;&gt;Constituent&lt;/font&gt;" style="text;html=1;align=center;verticalAlign=middle;resizable=0;points=[];autosize=1;strokeColor=default;fillColor=default;strokeWidth=2;" parent="AUimS9okSakmVEjvTTLS-56" vertex="1">
          <mxGeometry x="-1" y="40.86167652859961" width="114" height="35" as="geometry" />
        </mxCell>
        <mxCell id="AUimS9okSakmVEjvTTLS-59" value="" style="endArrow=none;html=1;rounded=0;startArrow=classic;startFill=1;strokeWidth=2;" parent="1" source="AUimS9okSakmVEjvTTLS-55" edge="1">
          <mxGeometry width="50" height="50" relative="1" as="geometry">
            <mxPoint x="1160.5" y="2177" as="sourcePoint" />
            <mxPoint x="915.1304347826087" y="2177" as="targetPoint" />
          </mxGeometry>
        </mxCell>
        <mxCell id="AUimS9okSakmVEjvTTLS-60" value="&lt;font style=&quot;font-size: 20px;&quot;&gt;&lt;b&gt;viewComplaintHistory()&lt;/b&gt;&lt;/font&gt;" style="text;html=1;align=center;verticalAlign=middle;resizable=0;points=[];autosize=1;strokeColor=none;fillColor=none;" parent="1" vertex="1">
          <mxGeometry x="955" y="2142" width="241" height="36" as="geometry" />
        </mxCell>
        <mxCell id="AUimS9okSakmVEjvTTLS-61" value="" style="endArrow=none;html=1;rounded=0;dashed=1;startArrow=classic;startFill=1;strokeWidth=2;" parent="1" edge="1">
          <mxGeometry width="50" height="50" relative="1" as="geometry">
            <mxPoint x="915.3103448275863" y="2256" as="sourcePoint" />
            <mxPoint x="1239.5000000000002" y="2256" as="targetPoint" />
          </mxGeometry>
        </mxCell>
        <mxCell id="AUimS9okSakmVEjvTTLS-62" value="&lt;font style=&quot;font-size: 20px;&quot;&gt;&lt;b&gt;retrieveComplaintRecords()&lt;/b&gt;&lt;/font&gt;" style="text;html=1;align=center;verticalAlign=middle;resizable=0;points=[];autosize=1;strokeColor=none;fillColor=none;" parent="1" vertex="1">
          <mxGeometry x="1240" y="2166" width="281" height="36" as="geometry" />
        </mxCell>
        <mxCell id="AUimS9okSakmVEjvTTLS-63" value="" style="endArrow=classic;html=1;rounded=1;curved=0;strokeWidth=2;" parent="1" edge="1">
          <mxGeometry width="50" height="50" relative="1" as="geometry">
            <mxPoint x="1241.3076923076924" y="2202" as="sourcePoint" />
            <mxPoint x="1241.3076923076924" y="2237" as="targetPoint" />
            <Array as="points">
              <mxPoint x="1276" y="2202" />
              <mxPoint x="1276" y="2220" />
              <mxPoint x="1276" y="2237" />
              <mxPoint x="1267" y="2237" />
            </Array>
          </mxGeometry>
        </mxCell>
        <mxCell id="AUimS9okSakmVEjvTTLS-65" value="&lt;font style=&quot;font-size: 18px;&quot;&gt;&lt;b style=&quot;&quot;&gt;Submit Complaint&lt;/b&gt;&lt;/font&gt;" style="rounded=1;whiteSpace=wrap;html=1;" parent="1" vertex="1">
          <mxGeometry x="876" y="720" width="475" height="60" as="geometry" />
        </mxCell>
        <mxCell id="AUimS9okSakmVEjvTTLS-64" value="&lt;font style=&quot;font-size: 20px;&quot;&gt;&lt;b&gt;displayComplaintHistory()&lt;/b&gt;&lt;/font&gt;" style="text;html=1;align=center;verticalAlign=middle;resizable=0;points=[];autosize=1;strokeColor=none;fillColor=none;" parent="1" vertex="1">
          <mxGeometry x="942" y="2223" width="267" height="36" as="geometry" />
        </mxCell>
        <mxCell id="AUimS9okSakmVEjvTTLS-67" value="" style="endArrow=none;html=1;rounded=0;startArrow=classic;startFill=1;strokeWidth=2;" parent="1" edge="1">
          <mxGeometry width="50" height="50" relative="1" as="geometry">
            <mxPoint x="907.37" y="-166" as="sourcePoint" />
            <mxPoint x="662.0004347826087" y="-166" as="targetPoint" />
          </mxGeometry>
        </mxCell>
        <mxCell id="AUimS9okSakmVEjvTTLS-69" value="&lt;font style=&quot;font-size: 18px;&quot;&gt;&lt;b style=&quot;&quot;&gt;Track Complaint Status&lt;/b&gt;&lt;/font&gt;" style="rounded=1;whiteSpace=wrap;html=1;" parent="1" vertex="1">
          <mxGeometry x="876" y="1318" width="475" height="60" as="geometry" />
        </mxCell>
        <mxCell id="AUimS9okSakmVEjvTTLS-70" value="&lt;font style=&quot;font-size: 19px;&quot;&gt;:Constituency Connect System&lt;/font&gt;" style="shape=umlLifeline;perimeter=lifelinePerimeter;whiteSpace=wrap;html=1;container=1;dropTarget=0;collapsible=0;recursiveResize=0;outlineConnect=0;portConstraint=eastwest;newEdgeStyle={&quot;curved&quot;:0,&quot;rounded&quot;:0};strokeWidth=2;size=50;" parent="1" vertex="1">
          <mxGeometry x="1180" y="2660" width="175" height="283" as="geometry" />
        </mxCell>
        <mxCell id="AUimS9okSakmVEjvTTLS-71" value="" style="group;strokeWidth=2;" parent="1" vertex="1" connectable="0">
          <mxGeometry x="888" y="2634" width="114" height="317" as="geometry" />
        </mxCell>
        <mxCell id="AUimS9okSakmVEjvTTLS-72" value="" style="shape=umlLifeline;perimeter=lifelinePerimeter;whiteSpace=wrap;html=1;container=1;dropTarget=0;collapsible=0;recursiveResize=0;outlineConnect=0;portConstraint=eastwest;newEdgeStyle={&quot;curved&quot;:0,&quot;rounded&quot;:0};participant=umlActor;strokeWidth=2;" parent="AUimS9okSakmVEjvTTLS-71" vertex="1">
          <mxGeometry x="44" width="20" height="305.8988326848249" as="geometry" />
        </mxCell>
        <mxCell id="AUimS9okSakmVEjvTTLS-73" value="&lt;font style=&quot;font-size: 19px;&quot;&gt;Constituent&lt;/font&gt;" style="text;html=1;align=center;verticalAlign=middle;resizable=0;points=[];autosize=1;strokeColor=default;fillColor=default;strokeWidth=2;" parent="AUimS9okSakmVEjvTTLS-71" vertex="1">
          <mxGeometry x="-1" y="39.98871694454008" width="114" height="35" as="geometry" />
        </mxCell>
        <mxCell id="AUimS9okSakmVEjvTTLS-74" value="" style="endArrow=none;html=1;rounded=0;startArrow=classic;startFill=1;strokeWidth=2;" parent="1" source="AUimS9okSakmVEjvTTLS-70" edge="1">
          <mxGeometry width="50" height="50" relative="1" as="geometry">
            <mxPoint x="1187.5" y="2773" as="sourcePoint" />
            <mxPoint x="942.1304347826087" y="2773" as="targetPoint" />
          </mxGeometry>
        </mxCell>
        <mxCell id="AUimS9okSakmVEjvTTLS-75" value="&lt;font style=&quot;font-size: 20px;&quot;&gt;&lt;b&gt;viewRepresentativeStats(id)&lt;/b&gt;&lt;/font&gt;" style="text;html=1;align=center;verticalAlign=middle;resizable=0;points=[];autosize=1;strokeColor=none;fillColor=none;" parent="1" vertex="1">
          <mxGeometry x="960" y="2738" width="285" height="36" as="geometry" />
        </mxCell>
        <mxCell id="AUimS9okSakmVEjvTTLS-76" value="" style="endArrow=none;html=1;rounded=0;dashed=1;startArrow=classic;startFill=1;strokeWidth=2;" parent="1" edge="1">
          <mxGeometry width="50" height="50" relative="1" as="geometry">
            <mxPoint x="942.3103448275863" y="2922" as="sourcePoint" />
            <mxPoint x="1266.5000000000002" y="2922" as="targetPoint" />
          </mxGeometry>
        </mxCell>
        <mxCell id="AUimS9okSakmVEjvTTLS-77" value="&lt;font style=&quot;font-size: 20px;&quot;&gt;&lt;b&gt;retrieveStatsData()&lt;/b&gt;&lt;/font&gt;" style="text;html=1;align=center;verticalAlign=middle;resizable=0;points=[];autosize=1;strokeColor=none;fillColor=none;" parent="1" vertex="1">
          <mxGeometry x="1267" y="2763" width="196" height="36" as="geometry" />
        </mxCell>
        <mxCell id="AUimS9okSakmVEjvTTLS-78" value="" style="endArrow=classic;html=1;rounded=1;curved=0;strokeWidth=2;" parent="1" edge="1">
          <mxGeometry width="50" height="50" relative="1" as="geometry">
            <mxPoint x="1268.3076923076924" y="2798" as="sourcePoint" />
            <mxPoint x="1268.3076923076924" y="2833" as="targetPoint" />
            <Array as="points">
              <mxPoint x="1303" y="2798" />
              <mxPoint x="1303" y="2816" />
              <mxPoint x="1303" y="2833" />
              <mxPoint x="1294" y="2833" />
            </Array>
          </mxGeometry>
        </mxCell>
        <mxCell id="AUimS9okSakmVEjvTTLS-79" value="&lt;font style=&quot;font-size: 20px;&quot;&gt;&lt;b&gt;dispalyStats()&lt;/b&gt;&lt;/font&gt;" style="text;html=1;align=center;verticalAlign=middle;resizable=0;points=[];autosize=1;strokeColor=none;fillColor=none;" parent="1" vertex="1">
          <mxGeometry x="1028" y="2889" width="149" height="36" as="geometry" />
        </mxCell>
        <mxCell id="AUimS9okSakmVEjvTTLS-81" value="&lt;font style=&quot;font-size: 18px;&quot;&gt;&lt;b style=&quot;&quot;&gt;Track Complaint History&lt;/b&gt;&lt;/font&gt;" style="rounded=1;whiteSpace=wrap;html=1;" parent="1" vertex="1">
          <mxGeometry x="922" y="1898" width="475" height="60" as="geometry" />
        </mxCell>
        <mxCell id="AUimS9okSakmVEjvTTLS-82" value="&lt;span style=&quot;font-size: 20px;&quot;&gt;&lt;b&gt;computeStats()&lt;/b&gt;&lt;/span&gt;" style="text;html=1;align=center;verticalAlign=middle;resizable=0;points=[];autosize=1;strokeColor=none;fillColor=none;" parent="1" vertex="1">
          <mxGeometry x="1266" y="2832" width="164" height="36" as="geometry" />
        </mxCell>
        <mxCell id="AUimS9okSakmVEjvTTLS-83" value="" style="endArrow=classic;html=1;rounded=1;curved=0;strokeWidth=2;" parent="1" edge="1">
          <mxGeometry width="50" height="50" relative="1" as="geometry">
            <mxPoint x="1268.3076923076924" y="2867" as="sourcePoint" />
            <mxPoint x="1268.3076923076924" y="2902" as="targetPoint" />
            <Array as="points">
              <mxPoint x="1303" y="2867" />
              <mxPoint x="1303" y="2885" />
              <mxPoint x="1303" y="2902" />
              <mxPoint x="1294" y="2902" />
            </Array>
          </mxGeometry>
        </mxCell>
        <mxCell id="AUimS9okSakmVEjvTTLS-85" value="&lt;font style=&quot;font-size: 18px;&quot;&gt;&lt;b style=&quot;&quot;&gt;View Representative Stats&lt;/b&gt;&lt;/font&gt;" style="rounded=1;whiteSpace=wrap;html=1;" parent="1" vertex="1">
          <mxGeometry x="910" y="2498" width="475" height="60" as="geometry" />
        </mxCell>
        <mxCell id="AUimS9okSakmVEjvTTLS-86" value="" style="endArrow=none;html=1;rounded=0;startArrow=classic;startFill=1;strokeWidth=2;" parent="1" source="AUimS9okSakmVEjvTTLS-91" edge="1">
          <mxGeometry width="50" height="50" relative="1" as="geometry">
            <mxPoint x="1224.5" y="3421" as="sourcePoint" />
            <mxPoint x="979.1304347826087" y="3421" as="targetPoint" />
          </mxGeometry>
        </mxCell>
        <mxCell id="AUimS9okSakmVEjvTTLS-87" value="" style="endArrow=none;html=1;rounded=0;dashed=1;startArrow=classic;startFill=1;strokeWidth=2;" parent="1" edge="1">
          <mxGeometry width="50" height="50" relative="1" as="geometry">
            <mxPoint x="979.2" y="3455" as="sourcePoint" />
            <mxPoint x="1303.5" y="3455" as="targetPoint" />
          </mxGeometry>
        </mxCell>
        <mxCell id="AUimS9okSakmVEjvTTLS-88" value="" style="endArrow=none;html=1;rounded=0;startArrow=classic;startFill=1;strokeWidth=2;" parent="1" edge="1">
          <mxGeometry width="50" height="50" relative="1" as="geometry">
            <mxPoint x="1303.5" y="3499" as="sourcePoint" />
            <mxPoint x="979.710144927536" y="3499" as="targetPoint" />
          </mxGeometry>
        </mxCell>
        <mxCell id="AUimS9okSakmVEjvTTLS-89" value="" style="endArrow=classic;html=1;rounded=1;curved=0;strokeWidth=2;" parent="1" edge="1">
          <mxGeometry width="50" height="50" relative="1" as="geometry">
            <mxPoint x="1305.3076923076924" y="3540" as="sourcePoint" />
            <mxPoint x="1305.3076923076924" y="3575" as="targetPoint" />
            <Array as="points">
              <mxPoint x="1340" y="3540" />
              <mxPoint x="1340" y="3558" />
              <mxPoint x="1340" y="3575" />
              <mxPoint x="1331" y="3575" />
            </Array>
          </mxGeometry>
        </mxCell>
        <mxCell id="AUimS9okSakmVEjvTTLS-90" value="" style="endArrow=none;html=1;rounded=0;dashed=1;startArrow=classic;startFill=1;strokeWidth=2;" parent="1" source="AUimS9okSakmVEjvTTLS-93" edge="1">
          <mxGeometry width="50" height="50" relative="1" as="geometry">
            <mxPoint x="979" y="3597" as="sourcePoint" />
            <mxPoint x="1304" y="3597" as="targetPoint" />
          </mxGeometry>
        </mxCell>
        <mxCell id="AUimS9okSakmVEjvTTLS-91" value="&lt;font style=&quot;font-size: 19px;&quot;&gt;:Constituency Connect System&lt;/font&gt;" style="shape=umlLifeline;perimeter=lifelinePerimeter;whiteSpace=wrap;html=1;container=1;dropTarget=0;collapsible=0;recursiveResize=0;outlineConnect=0;portConstraint=eastwest;newEdgeStyle={&quot;curved&quot;:0,&quot;rounded&quot;:0};strokeWidth=2;size=50;" parent="1" vertex="1">
          <mxGeometry x="1217" y="3308" width="175" height="310" as="geometry" />
        </mxCell>
        <mxCell id="AUimS9okSakmVEjvTTLS-92" value="" style="group;strokeWidth=2;" parent="1" vertex="1" connectable="0">
          <mxGeometry x="925" y="3282" width="114" height="338" as="geometry" />
        </mxCell>
        <mxCell id="AUimS9okSakmVEjvTTLS-93" value="" style="shape=umlLifeline;perimeter=lifelinePerimeter;whiteSpace=wrap;html=1;container=1;dropTarget=0;collapsible=0;recursiveResize=0;outlineConnect=0;portConstraint=eastwest;newEdgeStyle={&quot;curved&quot;:0,&quot;rounded&quot;:0};participant=umlActor;strokeWidth=2;" parent="AUimS9okSakmVEjvTTLS-92" vertex="1">
          <mxGeometry x="44" width="20" height="338" as="geometry" />
        </mxCell>
        <mxCell id="AUimS9okSakmVEjvTTLS-94" value="&lt;font style=&quot;font-size: 19px;&quot;&gt;Constituent&lt;/font&gt;" style="text;html=1;align=center;verticalAlign=middle;resizable=0;points=[];autosize=1;strokeColor=default;fillColor=default;strokeWidth=2;" parent="AUimS9okSakmVEjvTTLS-92" vertex="1">
          <mxGeometry x="-1" y="39.27333333333334" width="114" height="35" as="geometry" />
        </mxCell>
        <mxCell id="AUimS9okSakmVEjvTTLS-95" value="&lt;font style=&quot;font-size: 20px;&quot;&gt;&lt;b&gt;viewSurveyList()&lt;/b&gt;&lt;/font&gt;" style="text;html=1;align=center;verticalAlign=middle;resizable=0;points=[];autosize=1;strokeColor=none;fillColor=none;" parent="1" vertex="1">
          <mxGeometry x="1051" y="3386" width="177" height="36" as="geometry" />
        </mxCell>
        <mxCell id="AUimS9okSakmVEjvTTLS-96" value="&lt;font style=&quot;font-size: 20px;&quot;&gt;&lt;b&gt;displaySurvey()&lt;/b&gt;&lt;/font&gt;" style="text;html=1;align=center;verticalAlign=middle;resizable=0;points=[];autosize=1;strokeColor=none;fillColor=none;" parent="1" vertex="1">
          <mxGeometry x="1054" y="3422" width="167" height="36" as="geometry" />
        </mxCell>
        <mxCell id="AUimS9okSakmVEjvTTLS-97" value="&lt;font style=&quot;font-size: 20px;&quot;&gt;&lt;b&gt;participateInSurvey(responses)&lt;/b&gt;&lt;/font&gt;" style="text;html=1;align=center;verticalAlign=middle;resizable=0;points=[];autosize=1;strokeColor=none;fillColor=none;" parent="1" vertex="1">
          <mxGeometry x="981" y="3466" width="317" height="36" as="geometry" />
        </mxCell>
        <mxCell id="AUimS9okSakmVEjvTTLS-98" value="&lt;font style=&quot;font-size: 20px;&quot;&gt;&lt;b&gt;saveSurveyResult()&lt;/b&gt;&lt;/font&gt;" style="text;html=1;align=center;verticalAlign=middle;resizable=0;points=[];autosize=1;strokeColor=none;fillColor=none;" parent="1" vertex="1">
          <mxGeometry x="1304" y="3505" width="204" height="36" as="geometry" />
        </mxCell>
        <mxCell id="AUimS9okSakmVEjvTTLS-99" value="&lt;font style=&quot;font-size: 20px;&quot;&gt;&lt;b&gt;confirmSurveySubmission()&lt;/b&gt;&lt;/font&gt;" style="text;html=1;align=center;verticalAlign=middle;resizable=0;points=[];autosize=1;strokeColor=none;fillColor=none;" parent="1" vertex="1">
          <mxGeometry x="1004" y="3567" width="285" height="36" as="geometry" />
        </mxCell>
        <mxCell id="AUimS9okSakmVEjvTTLS-100" value="" style="endArrow=none;html=1;rounded=0;startArrow=classic;startFill=1;strokeWidth=2;" parent="1" source="AUimS9okSakmVEjvTTLS-105" edge="1">
          <mxGeometry width="50" height="50" relative="1" as="geometry">
            <mxPoint x="1228.5" y="4119" as="sourcePoint" />
            <mxPoint x="983.1304347826087" y="4119" as="targetPoint" />
          </mxGeometry>
        </mxCell>
        <mxCell id="AUimS9okSakmVEjvTTLS-101" value="" style="endArrow=none;html=1;rounded=0;dashed=1;startArrow=classic;startFill=1;strokeWidth=2;" parent="1" edge="1">
          <mxGeometry width="50" height="50" relative="1" as="geometry">
            <mxPoint x="983.2" y="4153" as="sourcePoint" />
            <mxPoint x="1307.5" y="4153" as="targetPoint" />
          </mxGeometry>
        </mxCell>
        <mxCell id="AUimS9okSakmVEjvTTLS-102" value="" style="endArrow=none;html=1;rounded=0;startArrow=classic;startFill=1;strokeWidth=2;" parent="1" edge="1">
          <mxGeometry width="50" height="50" relative="1" as="geometry">
            <mxPoint x="1307.5" y="4197" as="sourcePoint" />
            <mxPoint x="983.710144927536" y="4197" as="targetPoint" />
          </mxGeometry>
        </mxCell>
        <mxCell id="AUimS9okSakmVEjvTTLS-103" value="" style="endArrow=classic;html=1;rounded=1;curved=0;strokeWidth=2;" parent="1" edge="1">
          <mxGeometry width="50" height="50" relative="1" as="geometry">
            <mxPoint x="1309.3076923076924" y="4238" as="sourcePoint" />
            <mxPoint x="1309.3076923076924" y="4273" as="targetPoint" />
            <Array as="points">
              <mxPoint x="1344" y="4238" />
              <mxPoint x="1344" y="4256" />
              <mxPoint x="1344" y="4273" />
              <mxPoint x="1335" y="4273" />
            </Array>
          </mxGeometry>
        </mxCell>
        <mxCell id="AUimS9okSakmVEjvTTLS-104" value="" style="endArrow=none;html=1;rounded=0;dashed=1;startArrow=classic;startFill=1;strokeWidth=2;" parent="1" source="AUimS9okSakmVEjvTTLS-107" edge="1">
          <mxGeometry width="50" height="50" relative="1" as="geometry">
            <mxPoint x="983" y="4295" as="sourcePoint" />
            <mxPoint x="1308" y="4295" as="targetPoint" />
          </mxGeometry>
        </mxCell>
        <mxCell id="AUimS9okSakmVEjvTTLS-105" value="&lt;font style=&quot;font-size: 19px;&quot;&gt;:Constituency Connect System&lt;/font&gt;" style="shape=umlLifeline;perimeter=lifelinePerimeter;whiteSpace=wrap;html=1;container=1;dropTarget=0;collapsible=0;recursiveResize=0;outlineConnect=0;portConstraint=eastwest;newEdgeStyle={&quot;curved&quot;:0,&quot;rounded&quot;:0};strokeWidth=2;size=50;" parent="1" vertex="1">
          <mxGeometry x="1221" y="4006" width="175" height="310" as="geometry" />
        </mxCell>
        <mxCell id="AUimS9okSakmVEjvTTLS-106" value="" style="group;strokeWidth=2;" parent="1" vertex="1" connectable="0">
          <mxGeometry x="929" y="3980" width="114" height="338" as="geometry" />
        </mxCell>
        <mxCell id="AUimS9okSakmVEjvTTLS-107" value="" style="shape=umlLifeline;perimeter=lifelinePerimeter;whiteSpace=wrap;html=1;container=1;dropTarget=0;collapsible=0;recursiveResize=0;outlineConnect=0;portConstraint=eastwest;newEdgeStyle={&quot;curved&quot;:0,&quot;rounded&quot;:0};participant=umlActor;strokeWidth=2;" parent="AUimS9okSakmVEjvTTLS-106" vertex="1">
          <mxGeometry x="44" width="20" height="338" as="geometry" />
        </mxCell>
        <mxCell id="AUimS9okSakmVEjvTTLS-108" value="&lt;font style=&quot;font-size: 19px;&quot;&gt;Constituent&lt;/font&gt;" style="text;html=1;align=center;verticalAlign=middle;resizable=0;points=[];autosize=1;strokeColor=default;fillColor=default;strokeWidth=2;" parent="AUimS9okSakmVEjvTTLS-106" vertex="1">
          <mxGeometry x="-1" y="39.27333333333334" width="114" height="35" as="geometry" />
        </mxCell>
        <mxCell id="AUimS9okSakmVEjvTTLS-109" value="&lt;font style=&quot;font-size: 20px;&quot;&gt;&lt;b&gt;getComplaintList()&lt;/b&gt;&lt;/font&gt;" style="text;html=1;align=center;verticalAlign=middle;resizable=0;points=[];autosize=1;strokeColor=none;fillColor=none;" parent="1" vertex="1">
          <mxGeometry x="1046" y="4084" width="195" height="36" as="geometry" />
        </mxCell>
        <mxCell id="AUimS9okSakmVEjvTTLS-110" value="&lt;font style=&quot;font-size: 20px;&quot;&gt;&lt;b&gt;displayComplaints()&lt;/b&gt;&lt;/font&gt;" style="text;html=1;align=center;verticalAlign=middle;resizable=0;points=[];autosize=1;strokeColor=none;fillColor=none;" parent="1" vertex="1">
          <mxGeometry x="1037" y="4120" width="209" height="36" as="geometry" />
        </mxCell>
        <mxCell id="AUimS9okSakmVEjvTTLS-111" value="&lt;font style=&quot;font-size: 20px;&quot;&gt;&lt;b&gt;giveFeedback(complaintId)&lt;/b&gt;&lt;/font&gt;" style="text;html=1;align=center;verticalAlign=middle;resizable=0;points=[];autosize=1;strokeColor=none;fillColor=none;" parent="1" vertex="1">
          <mxGeometry x="1006" y="4164" width="276" height="36" as="geometry" />
        </mxCell>
        <mxCell id="AUimS9okSakmVEjvTTLS-112" value="&lt;font style=&quot;font-size: 20px;&quot;&gt;&lt;b&gt;saveFeedback()&lt;/b&gt;&lt;/font&gt;" style="text;html=1;align=center;verticalAlign=middle;resizable=0;points=[];autosize=1;strokeColor=none;fillColor=none;" parent="1" vertex="1">
          <mxGeometry x="1326" y="4203" width="168" height="36" as="geometry" />
        </mxCell>
        <mxCell id="AUimS9okSakmVEjvTTLS-113" value="&lt;font style=&quot;font-size: 20px;&quot;&gt;&lt;b&gt;confirmFeedbackSubmission()&lt;/b&gt;&lt;/font&gt;" style="text;html=1;align=center;verticalAlign=middle;resizable=0;points=[];autosize=1;strokeColor=none;fillColor=none;" parent="1" vertex="1">
          <mxGeometry x="996" y="4265" width="310" height="36" as="geometry" />
        </mxCell>
        <mxCell id="AUimS9okSakmVEjvTTLS-115" value="&lt;font style=&quot;font-size: 18px;&quot;&gt;&lt;b style=&quot;&quot;&gt;Participate In Survey&lt;/b&gt;&lt;/font&gt;" style="rounded=1;whiteSpace=wrap;html=1;" parent="1" vertex="1">
          <mxGeometry x="907" y="3191" width="475" height="60" as="geometry" />
        </mxCell>
        <mxCell id="AUimS9okSakmVEjvTTLS-116" value="&lt;font style=&quot;font-size: 19px;&quot;&gt;:Constituency Connect System&lt;/font&gt;" style="shape=umlLifeline;perimeter=lifelinePerimeter;whiteSpace=wrap;html=1;container=1;dropTarget=0;collapsible=0;recursiveResize=0;outlineConnect=0;portConstraint=eastwest;newEdgeStyle={&quot;curved&quot;:0,&quot;rounded&quot;:0};strokeWidth=2;size=50;" parent="1" vertex="1">
          <mxGeometry x="1219.5" y="4610" width="175" height="219" as="geometry" />
        </mxCell>
        <mxCell id="AUimS9okSakmVEjvTTLS-117" value="" style="group;strokeWidth=2;" parent="1" vertex="1" connectable="0">
          <mxGeometry x="927.5" y="4584" width="114" height="257" as="geometry" />
        </mxCell>
        <mxCell id="AUimS9okSakmVEjvTTLS-118" value="" style="shape=umlLifeline;perimeter=lifelinePerimeter;whiteSpace=wrap;html=1;container=1;dropTarget=0;collapsible=0;recursiveResize=0;outlineConnect=0;portConstraint=eastwest;newEdgeStyle={&quot;curved&quot;:0,&quot;rounded&quot;:0};participant=umlActor;strokeWidth=2;" parent="AUimS9okSakmVEjvTTLS-117" vertex="1">
          <mxGeometry x="44" width="20" height="248" as="geometry" />
        </mxCell>
        <mxCell id="AUimS9okSakmVEjvTTLS-119" value="&lt;font style=&quot;font-size: 19px;&quot;&gt;Constituent&lt;/font&gt;" style="text;html=1;align=center;verticalAlign=middle;resizable=0;points=[];autosize=1;strokeColor=default;fillColor=default;strokeWidth=2;" parent="AUimS9okSakmVEjvTTLS-117" vertex="1">
          <mxGeometry x="-1" y="40.86167652859961" width="114" height="35" as="geometry" />
        </mxCell>
        <mxCell id="AUimS9okSakmVEjvTTLS-120" value="" style="endArrow=none;html=1;rounded=0;startArrow=classic;startFill=1;strokeWidth=2;" parent="1" source="AUimS9okSakmVEjvTTLS-116" edge="1">
          <mxGeometry width="50" height="50" relative="1" as="geometry">
            <mxPoint x="1227" y="4723" as="sourcePoint" />
            <mxPoint x="981.6304347826087" y="4723" as="targetPoint" />
          </mxGeometry>
        </mxCell>
        <mxCell id="AUimS9okSakmVEjvTTLS-121" value="&lt;font style=&quot;font-size: 20px;&quot;&gt;&lt;b&gt;viewActiveCampaigns()&lt;/b&gt;&lt;/font&gt;" style="text;html=1;align=center;verticalAlign=middle;resizable=0;points=[];autosize=1;strokeColor=none;fillColor=none;" parent="1" vertex="1">
          <mxGeometry x="1020.5" y="4688" width="243" height="36" as="geometry" />
        </mxCell>
        <mxCell id="AUimS9okSakmVEjvTTLS-122" value="" style="endArrow=none;html=1;rounded=0;dashed=1;startArrow=classic;startFill=1;strokeWidth=2;" parent="1" edge="1">
          <mxGeometry width="50" height="50" relative="1" as="geometry">
            <mxPoint x="981.8103448275863" y="4802" as="sourcePoint" />
            <mxPoint x="1306.0000000000002" y="4802" as="targetPoint" />
          </mxGeometry>
        </mxCell>
        <mxCell id="AUimS9okSakmVEjvTTLS-123" value="&lt;font style=&quot;font-size: 20px;&quot;&gt;&lt;b&gt;retrieveCampaigns()&lt;/b&gt;&lt;/font&gt;" style="text;html=1;align=center;verticalAlign=middle;resizable=0;points=[];autosize=1;strokeColor=none;fillColor=none;" parent="1" vertex="1">
          <mxGeometry x="1308.5" y="4712" width="211" height="36" as="geometry" />
        </mxCell>
        <mxCell id="AUimS9okSakmVEjvTTLS-124" value="" style="endArrow=classic;html=1;rounded=1;curved=0;strokeWidth=2;" parent="1" edge="1">
          <mxGeometry width="50" height="50" relative="1" as="geometry">
            <mxPoint x="1307.8076923076924" y="4748" as="sourcePoint" />
            <mxPoint x="1307.8076923076924" y="4783" as="targetPoint" />
            <Array as="points">
              <mxPoint x="1342.5" y="4748" />
              <mxPoint x="1342.5" y="4766" />
              <mxPoint x="1342.5" y="4783" />
              <mxPoint x="1333.5" y="4783" />
            </Array>
          </mxGeometry>
        </mxCell>
        <mxCell id="AUimS9okSakmVEjvTTLS-125" value="&lt;font style=&quot;font-size: 20px;&quot;&gt;&lt;b&gt;display&lt;/b&gt;&lt;b&gt;Campaigns&lt;/b&gt;&lt;b&gt;()&lt;/b&gt;&lt;/font&gt;" style="text;html=1;align=center;verticalAlign=middle;resizable=0;points=[];autosize=1;strokeColor=none;fillColor=none;" parent="1" vertex="1">
          <mxGeometry x="1043" y="4769" width="208" height="36" as="geometry" />
        </mxCell>
        <mxCell id="AUimS9okSakmVEjvTTLS-127" value="&lt;font style=&quot;font-size: 18px;&quot;&gt;&lt;b style=&quot;&quot;&gt;Provide Feedback&lt;/b&gt;&lt;/font&gt;" style="rounded=1;whiteSpace=wrap;html=1;" parent="1" vertex="1">
          <mxGeometry x="915" y="3855" width="475" height="60" as="geometry" />
        </mxCell>
        <mxCell id="AUimS9okSakmVEjvTTLS-128" value="&lt;font style=&quot;font-size: 19px;&quot;&gt;:Constituency Connect System&lt;/font&gt;" style="shape=umlLifeline;perimeter=lifelinePerimeter;whiteSpace=wrap;html=1;container=1;dropTarget=0;collapsible=0;recursiveResize=0;outlineConnect=0;portConstraint=eastwest;newEdgeStyle={&quot;curved&quot;:0,&quot;rounded&quot;:0};strokeWidth=2;size=50;" parent="1" vertex="1">
          <mxGeometry x="1184" y="5169" width="175" height="219" as="geometry" />
        </mxCell>
        <mxCell id="AUimS9okSakmVEjvTTLS-129" value="" style="group;strokeWidth=2;" parent="1" vertex="1" connectable="0">
          <mxGeometry x="892" y="5143" width="114" height="257" as="geometry" />
        </mxCell>
        <mxCell id="AUimS9okSakmVEjvTTLS-130" value="" style="shape=umlLifeline;perimeter=lifelinePerimeter;whiteSpace=wrap;html=1;container=1;dropTarget=0;collapsible=0;recursiveResize=0;outlineConnect=0;portConstraint=eastwest;newEdgeStyle={&quot;curved&quot;:0,&quot;rounded&quot;:0};participant=umlActor;strokeWidth=2;" parent="AUimS9okSakmVEjvTTLS-129" vertex="1">
          <mxGeometry x="44" width="20" height="248" as="geometry" />
        </mxCell>
        <mxCell id="AUimS9okSakmVEjvTTLS-131" value="&lt;font style=&quot;font-size: 19px;&quot;&gt;Constituent&lt;/font&gt;" style="text;html=1;align=center;verticalAlign=middle;resizable=0;points=[];autosize=1;strokeColor=default;fillColor=default;strokeWidth=2;" parent="AUimS9okSakmVEjvTTLS-129" vertex="1">
          <mxGeometry x="-1" y="40.86167652859961" width="114" height="35" as="geometry" />
        </mxCell>
        <mxCell id="AUimS9okSakmVEjvTTLS-132" value="" style="endArrow=none;html=1;rounded=0;startArrow=classic;startFill=1;strokeWidth=2;" parent="1" source="AUimS9okSakmVEjvTTLS-128" edge="1">
          <mxGeometry width="50" height="50" relative="1" as="geometry">
            <mxPoint x="1191.5" y="5282" as="sourcePoint" />
            <mxPoint x="946.1304347826087" y="5282" as="targetPoint" />
          </mxGeometry>
        </mxCell>
        <mxCell id="AUimS9okSakmVEjvTTLS-133" value="&lt;font style=&quot;font-size: 20px;&quot;&gt;&lt;b&gt;viewEventCalender()&lt;/b&gt;&lt;/font&gt;" style="text;html=1;align=center;verticalAlign=middle;resizable=0;points=[];autosize=1;strokeColor=none;fillColor=none;" parent="1" vertex="1">
          <mxGeometry x="999" y="5247" width="215" height="36" as="geometry" />
        </mxCell>
        <mxCell id="AUimS9okSakmVEjvTTLS-134" value="" style="endArrow=none;html=1;rounded=0;dashed=1;startArrow=classic;startFill=1;strokeWidth=2;" parent="1" edge="1">
          <mxGeometry width="50" height="50" relative="1" as="geometry">
            <mxPoint x="946.3103448275863" y="5361" as="sourcePoint" />
            <mxPoint x="1270.5000000000002" y="5361" as="targetPoint" />
          </mxGeometry>
        </mxCell>
        <mxCell id="AUimS9okSakmVEjvTTLS-135" value="&lt;font style=&quot;font-size: 20px;&quot;&gt;&lt;b&gt;retrieveEventsDetails()&lt;/b&gt;&lt;/font&gt;" style="text;html=1;align=center;verticalAlign=middle;resizable=0;points=[];autosize=1;strokeColor=none;fillColor=none;" parent="1" vertex="1">
          <mxGeometry x="1272" y="5271" width="235" height="36" as="geometry" />
        </mxCell>
        <mxCell id="AUimS9okSakmVEjvTTLS-136" value="" style="endArrow=classic;html=1;rounded=1;curved=0;strokeWidth=2;" parent="1" edge="1">
          <mxGeometry width="50" height="50" relative="1" as="geometry">
            <mxPoint x="1272.3076923076924" y="5307" as="sourcePoint" />
            <mxPoint x="1272.3076923076924" y="5342" as="targetPoint" />
            <Array as="points">
              <mxPoint x="1307" y="5307" />
              <mxPoint x="1307" y="5325" />
              <mxPoint x="1307" y="5342" />
              <mxPoint x="1298" y="5342" />
            </Array>
          </mxGeometry>
        </mxCell>
        <mxCell id="AUimS9okSakmVEjvTTLS-137" value="&lt;font style=&quot;font-size: 20px;&quot;&gt;&lt;b&gt;displayEventCalender&lt;/b&gt;&lt;b&gt;()&lt;/b&gt;&lt;/font&gt;" style="text;html=1;align=center;verticalAlign=middle;resizable=0;points=[];autosize=1;strokeColor=none;fillColor=none;" parent="1" vertex="1">
          <mxGeometry x="991.5" y="5328" width="240" height="36" as="geometry" />
        </mxCell>
        <mxCell id="AUimS9okSakmVEjvTTLS-139" value="&lt;font style=&quot;font-size: 18px;&quot;&gt;&lt;b style=&quot;&quot;&gt;Display Awareness Campaign&lt;/b&gt;&lt;/font&gt;" style="rounded=1;whiteSpace=wrap;html=1;" parent="1" vertex="1">
          <mxGeometry x="910" y="4441" width="475" height="60" as="geometry" />
        </mxCell>
        <mxCell id="AUimS9okSakmVEjvTTLS-140" value="&lt;font style=&quot;font-size: 18px;&quot;&gt;&lt;b style=&quot;&quot;&gt;Display Event Calender&lt;/b&gt;&lt;/font&gt;" style="rounded=1;whiteSpace=wrap;html=1;" parent="1" vertex="1">
          <mxGeometry x="919" y="4995" width="475" height="60" as="geometry" />
        </mxCell>
        <mxCell id="AUimS9okSakmVEjvTTLS-142" value="" style="rounded=0;whiteSpace=wrap;html=1;" parent="1" vertex="1">
          <mxGeometry x="1974" y="699" width="748" height="491" as="geometry" />
        </mxCell>
        <mxCell id="AUimS9okSakmVEjvTTLS-145" value="" style="endArrow=none;html=1;rounded=0;startArrow=classic;startFill=1;strokeWidth=2;" parent="1" edge="1">
          <mxGeometry width="50" height="50" relative="1" as="geometry">
            <mxPoint x="2451.5" y="932" as="sourcePoint" />
            <mxPoint x="2127.710144927536" y="932" as="targetPoint" />
          </mxGeometry>
        </mxCell>
        <mxCell id="AUimS9okSakmVEjvTTLS-146" value="" style="endArrow=classic;html=1;rounded=1;curved=0;strokeWidth=2;" parent="1" edge="1">
          <mxGeometry width="50" height="50" relative="1" as="geometry">
            <mxPoint x="2453.3076923076924" y="973" as="sourcePoint" />
            <mxPoint x="2453.3076923076924" y="1008" as="targetPoint" />
            <Array as="points">
              <mxPoint x="2488" y="973" />
              <mxPoint x="2488" y="991" />
              <mxPoint x="2488" y="1008" />
              <mxPoint x="2479" y="1008" />
            </Array>
          </mxGeometry>
        </mxCell>
        <mxCell id="AUimS9okSakmVEjvTTLS-147" value="" style="endArrow=none;html=1;rounded=0;dashed=1;startArrow=classic;startFill=1;strokeWidth=2;" parent="1" edge="1">
          <mxGeometry width="50" height="50" relative="1" as="geometry">
            <mxPoint x="2127.2" y="1104" as="sourcePoint" />
            <mxPoint x="2452" y="1104" as="targetPoint" />
          </mxGeometry>
        </mxCell>
        <mxCell id="AUimS9okSakmVEjvTTLS-148" value="&lt;font style=&quot;font-size: 19px;&quot;&gt;:Constituency Connect System&lt;/font&gt;" style="shape=umlLifeline;perimeter=lifelinePerimeter;whiteSpace=wrap;html=1;container=1;dropTarget=0;collapsible=0;recursiveResize=0;outlineConnect=0;portConstraint=eastwest;newEdgeStyle={&quot;curved&quot;:0,&quot;rounded&quot;:0};strokeWidth=2;size=50;" parent="1" vertex="1">
          <mxGeometry x="2365" y="831" width="175" height="310" as="geometry" />
        </mxCell>
        <mxCell id="AUimS9okSakmVEjvTTLS-149" value="" style="group;strokeWidth=2;" parent="1" vertex="1" connectable="0">
          <mxGeometry x="2073" y="805" width="129" height="338" as="geometry" />
        </mxCell>
        <mxCell id="AUimS9okSakmVEjvTTLS-150" value="" style="shape=umlLifeline;perimeter=lifelinePerimeter;whiteSpace=wrap;html=1;container=1;dropTarget=0;collapsible=0;recursiveResize=0;outlineConnect=0;portConstraint=eastwest;newEdgeStyle={&quot;curved&quot;:0,&quot;rounded&quot;:0};participant=umlActor;strokeWidth=2;" parent="AUimS9okSakmVEjvTTLS-149" vertex="1">
          <mxGeometry x="44" width="20" height="338" as="geometry" />
        </mxCell>
        <mxCell id="AUimS9okSakmVEjvTTLS-151" value="&lt;font style=&quot;font-size: 19px;&quot;&gt;Representative&lt;/font&gt;" style="text;html=1;align=center;verticalAlign=middle;resizable=0;points=[];autosize=1;strokeColor=default;fillColor=default;strokeWidth=2;" parent="AUimS9okSakmVEjvTTLS-149" vertex="1">
          <mxGeometry x="-9" y="39.27333333333334" width="146" height="35" as="geometry" />
        </mxCell>
        <mxCell id="AUimS9okSakmVEjvTTLS-154" value="&lt;font style=&quot;font-size: 20px;&quot;&gt;&lt;b&gt;createSurvey()&lt;/b&gt;&lt;/font&gt;" style="text;html=1;align=center;verticalAlign=middle;resizable=0;points=[];autosize=1;strokeColor=none;fillColor=none;" parent="1" vertex="1">
          <mxGeometry x="2209" y="899" width="157" height="36" as="geometry" />
        </mxCell>
        <mxCell id="AUimS9okSakmVEjvTTLS-155" value="&lt;font style=&quot;font-size: 20px;&quot;&gt;&lt;b&gt;validateSurveyDetails()&lt;/b&gt;&lt;/font&gt;" style="text;html=1;align=center;verticalAlign=middle;resizable=0;points=[];autosize=1;strokeColor=none;fillColor=none;" parent="1" vertex="1">
          <mxGeometry x="2453" y="937" width="238" height="36" as="geometry" />
        </mxCell>
        <mxCell id="AUimS9okSakmVEjvTTLS-156" value="&lt;font style=&quot;font-size: 20px;&quot;&gt;&lt;b&gt;confirmSurveyCreation()&lt;/b&gt;&lt;/font&gt;" style="text;html=1;align=center;verticalAlign=middle;resizable=0;points=[];autosize=1;strokeColor=none;fillColor=none;" parent="1" vertex="1">
          <mxGeometry x="2161" y="1071" width="253" height="36" as="geometry" />
        </mxCell>
        <mxCell id="AUimS9okSakmVEjvTTLS-157" value="&lt;font style=&quot;font-size: 18px;&quot;&gt;&lt;b style=&quot;&quot;&gt;Create Survey&lt;/b&gt;&lt;/font&gt;" style="rounded=1;whiteSpace=wrap;html=1;" parent="1" vertex="1">
          <mxGeometry x="2055" y="714" width="475" height="60" as="geometry" />
        </mxCell>
        <mxCell id="AUimS9okSakmVEjvTTLS-158" value="" style="endArrow=classic;html=1;rounded=1;curved=0;strokeWidth=2;" parent="1" edge="1">
          <mxGeometry width="50" height="50" relative="1" as="geometry">
            <mxPoint x="2453.3076923076924" y="1043" as="sourcePoint" />
            <mxPoint x="2453.3076923076924" y="1078" as="targetPoint" />
            <Array as="points">
              <mxPoint x="2488" y="1043" />
              <mxPoint x="2488" y="1061" />
              <mxPoint x="2488" y="1078" />
              <mxPoint x="2479" y="1078" />
            </Array>
          </mxGeometry>
        </mxCell>
        <mxCell id="AUimS9okSakmVEjvTTLS-159" value="&lt;font style=&quot;font-size: 20px;&quot;&gt;&lt;b&gt;saveSurvey()&lt;/b&gt;&lt;/font&gt;" style="text;html=1;align=center;verticalAlign=middle;resizable=0;points=[];autosize=1;strokeColor=none;fillColor=none;" parent="1" vertex="1">
          <mxGeometry x="2453" y="1008" width="143" height="36" as="geometry" />
        </mxCell>
        <mxCell id="AUimS9okSakmVEjvTTLS-160" value="" style="rounded=0;whiteSpace=wrap;html=1;" parent="1" vertex="1">
          <mxGeometry x="1974" y="1323" width="771" height="491" as="geometry" />
        </mxCell>
        <mxCell id="AUimS9okSakmVEjvTTLS-161" value="" style="endArrow=none;html=1;rounded=0;startArrow=classic;startFill=1;strokeWidth=2;" parent="1" edge="1">
          <mxGeometry width="50" height="50" relative="1" as="geometry">
            <mxPoint x="2451.5" y="1556" as="sourcePoint" />
            <mxPoint x="2127.710144927536" y="1556" as="targetPoint" />
          </mxGeometry>
        </mxCell>
        <mxCell id="AUimS9okSakmVEjvTTLS-162" value="" style="endArrow=classic;html=1;rounded=1;curved=0;strokeWidth=2;" parent="1" edge="1">
          <mxGeometry width="50" height="50" relative="1" as="geometry">
            <mxPoint x="2453.3076923076924" y="1597" as="sourcePoint" />
            <mxPoint x="2453.3076923076924" y="1632" as="targetPoint" />
            <Array as="points">
              <mxPoint x="2488" y="1597" />
              <mxPoint x="2488" y="1615" />
              <mxPoint x="2488" y="1632" />
              <mxPoint x="2479" y="1632" />
            </Array>
          </mxGeometry>
        </mxCell>
        <mxCell id="AUimS9okSakmVEjvTTLS-163" value="" style="endArrow=none;html=1;rounded=0;dashed=1;startArrow=classic;startFill=1;strokeWidth=2;" parent="1" edge="1">
          <mxGeometry width="50" height="50" relative="1" as="geometry">
            <mxPoint x="2127.2" y="1728" as="sourcePoint" />
            <mxPoint x="2452" y="1728" as="targetPoint" />
          </mxGeometry>
        </mxCell>
        <mxCell id="AUimS9okSakmVEjvTTLS-164" value="&lt;font style=&quot;font-size: 19px;&quot;&gt;:Constituency Connect System&lt;/font&gt;" style="shape=umlLifeline;perimeter=lifelinePerimeter;whiteSpace=wrap;html=1;container=1;dropTarget=0;collapsible=0;recursiveResize=0;outlineConnect=0;portConstraint=eastwest;newEdgeStyle={&quot;curved&quot;:0,&quot;rounded&quot;:0};strokeWidth=2;size=50;" parent="1" vertex="1">
          <mxGeometry x="2365" y="1455" width="175" height="310" as="geometry" />
        </mxCell>
        <mxCell id="AUimS9okSakmVEjvTTLS-165" value="" style="group;strokeWidth=2;" parent="1" vertex="1" connectable="0">
          <mxGeometry x="2073" y="1429" width="129" height="338" as="geometry" />
        </mxCell>
        <mxCell id="AUimS9okSakmVEjvTTLS-166" value="" style="shape=umlLifeline;perimeter=lifelinePerimeter;whiteSpace=wrap;html=1;container=1;dropTarget=0;collapsible=0;recursiveResize=0;outlineConnect=0;portConstraint=eastwest;newEdgeStyle={&quot;curved&quot;:0,&quot;rounded&quot;:0};participant=umlActor;strokeWidth=2;" parent="AUimS9okSakmVEjvTTLS-165" vertex="1">
          <mxGeometry x="44" width="20" height="338" as="geometry" />
        </mxCell>
        <mxCell id="AUimS9okSakmVEjvTTLS-167" value="&lt;font style=&quot;font-size: 19px;&quot;&gt;Representative&lt;/font&gt;" style="text;html=1;align=center;verticalAlign=middle;resizable=0;points=[];autosize=1;strokeColor=default;fillColor=default;strokeWidth=2;" parent="AUimS9okSakmVEjvTTLS-165" vertex="1">
          <mxGeometry x="-10" y="39.27333333333334" width="146" height="35" as="geometry" />
        </mxCell>
        <mxCell id="AUimS9okSakmVEjvTTLS-168" value="&lt;font style=&quot;font-size: 20px;&quot;&gt;&lt;b&gt;selectSurvey()&lt;/b&gt;&lt;/font&gt;" style="text;html=1;align=center;verticalAlign=middle;resizable=0;points=[];autosize=1;strokeColor=none;fillColor=none;" parent="1" vertex="1">
          <mxGeometry x="2210" y="1523" width="155" height="36" as="geometry" />
        </mxCell>
        <mxCell id="AUimS9okSakmVEjvTTLS-169" value="&lt;font style=&quot;font-size: 20px;&quot;&gt;&lt;b&gt;retrieveSurveyResponses()&lt;/b&gt;&lt;/font&gt;" style="text;html=1;align=center;verticalAlign=middle;resizable=0;points=[];autosize=1;strokeColor=none;fillColor=none;" parent="1" vertex="1">
          <mxGeometry x="2452" y="1561" width="277" height="36" as="geometry" />
        </mxCell>
        <mxCell id="AUimS9okSakmVEjvTTLS-170" value="&lt;font style=&quot;font-size: 20px;&quot;&gt;&lt;b&gt;displaySurveyResults()&lt;/b&gt;&lt;/font&gt;" style="text;html=1;align=center;verticalAlign=middle;resizable=0;points=[];autosize=1;strokeColor=none;fillColor=none;" parent="1" vertex="1">
          <mxGeometry x="2168" y="1695" width="239" height="36" as="geometry" />
        </mxCell>
        <mxCell id="AUimS9okSakmVEjvTTLS-171" value="&lt;font style=&quot;font-size: 18px;&quot;&gt;&lt;b style=&quot;&quot;&gt;Compute Survey Result&lt;/b&gt;&lt;/font&gt;" style="rounded=1;whiteSpace=wrap;html=1;" parent="1" vertex="1">
          <mxGeometry x="2055" y="1338" width="475" height="60" as="geometry" />
        </mxCell>
        <mxCell id="AUimS9okSakmVEjvTTLS-172" value="" style="endArrow=classic;html=1;rounded=1;curved=0;strokeWidth=2;" parent="1" edge="1">
          <mxGeometry width="50" height="50" relative="1" as="geometry">
            <mxPoint x="2453.3076923076924" y="1667" as="sourcePoint" />
            <mxPoint x="2453.3076923076924" y="1702" as="targetPoint" />
            <Array as="points">
              <mxPoint x="2488" y="1667" />
              <mxPoint x="2488" y="1685" />
              <mxPoint x="2488" y="1702" />
              <mxPoint x="2479" y="1702" />
            </Array>
          </mxGeometry>
        </mxCell>
        <mxCell id="AUimS9okSakmVEjvTTLS-173" value="&lt;font style=&quot;font-size: 20px;&quot;&gt;&lt;b&gt;computeSurveyResults()&lt;/b&gt;&lt;/font&gt;" style="text;html=1;align=center;verticalAlign=middle;resizable=0;points=[];autosize=1;strokeColor=none;fillColor=none;" parent="1" vertex="1">
          <mxGeometry x="2452" y="1630" width="254" height="36" as="geometry" />
        </mxCell>
        <mxCell id="AUimS9okSakmVEjvTTLS-174" value="" style="rounded=0;whiteSpace=wrap;html=1;" parent="1" vertex="1">
          <mxGeometry x="1974" y="1939" width="771" height="491" as="geometry" />
        </mxCell>
        <mxCell id="AUimS9okSakmVEjvTTLS-175" value="" style="endArrow=none;html=1;rounded=0;startArrow=classic;startFill=1;strokeWidth=2;" parent="1" edge="1">
          <mxGeometry width="50" height="50" relative="1" as="geometry">
            <mxPoint x="2451.5" y="2172" as="sourcePoint" />
            <mxPoint x="2127.710144927536" y="2172" as="targetPoint" />
          </mxGeometry>
        </mxCell>
        <mxCell id="AUimS9okSakmVEjvTTLS-176" value="" style="endArrow=classic;html=1;rounded=1;curved=0;strokeWidth=2;" parent="1" edge="1">
          <mxGeometry width="50" height="50" relative="1" as="geometry">
            <mxPoint x="2453.3076923076924" y="2213" as="sourcePoint" />
            <mxPoint x="2453.3076923076924" y="2248" as="targetPoint" />
            <Array as="points">
              <mxPoint x="2488" y="2213" />
              <mxPoint x="2488" y="2231" />
              <mxPoint x="2488" y="2248" />
              <mxPoint x="2479" y="2248" />
            </Array>
          </mxGeometry>
        </mxCell>
        <mxCell id="AUimS9okSakmVEjvTTLS-177" value="" style="endArrow=none;html=1;rounded=0;dashed=1;startArrow=classic;startFill=1;strokeWidth=2;" parent="1" edge="1">
          <mxGeometry width="50" height="50" relative="1" as="geometry">
            <mxPoint x="2127.2" y="2275" as="sourcePoint" />
            <mxPoint x="2452" y="2275" as="targetPoint" />
          </mxGeometry>
        </mxCell>
        <mxCell id="AUimS9okSakmVEjvTTLS-178" value="&lt;font style=&quot;font-size: 19px;&quot;&gt;:Constituency Connect System&lt;/font&gt;" style="shape=umlLifeline;perimeter=lifelinePerimeter;whiteSpace=wrap;html=1;container=1;dropTarget=0;collapsible=0;recursiveResize=0;outlineConnect=0;portConstraint=eastwest;newEdgeStyle={&quot;curved&quot;:0,&quot;rounded&quot;:0};strokeWidth=2;size=50;" parent="1" vertex="1">
          <mxGeometry x="2365" y="2071" width="175" height="226" as="geometry" />
        </mxCell>
        <mxCell id="AUimS9okSakmVEjvTTLS-179" value="" style="group;strokeWidth=2;" parent="1" vertex="1" connectable="0">
          <mxGeometry x="2073" y="2045" width="129" height="256" as="geometry" />
        </mxCell>
        <mxCell id="AUimS9okSakmVEjvTTLS-180" value="" style="shape=umlLifeline;perimeter=lifelinePerimeter;whiteSpace=wrap;html=1;container=1;dropTarget=0;collapsible=0;recursiveResize=0;outlineConnect=0;portConstraint=eastwest;newEdgeStyle={&quot;curved&quot;:0,&quot;rounded&quot;:0};participant=umlActor;strokeWidth=2;" parent="AUimS9okSakmVEjvTTLS-179" vertex="1">
          <mxGeometry x="44" width="20" height="256" as="geometry" />
        </mxCell>
        <mxCell id="AUimS9okSakmVEjvTTLS-181" value="&lt;font style=&quot;font-size: 19px;&quot;&gt;Representative&lt;/font&gt;" style="text;html=1;align=center;verticalAlign=middle;resizable=0;points=[];autosize=1;strokeColor=default;fillColor=default;strokeWidth=2;" parent="AUimS9okSakmVEjvTTLS-179" vertex="1">
          <mxGeometry x="-9" y="39.974054663285436" width="146" height="35" as="geometry" />
        </mxCell>
        <mxCell id="AUimS9okSakmVEjvTTLS-182" value="&lt;span style=&quot;font-size: 20px;&quot;&gt;&lt;b&gt;addEventToCalender&lt;/b&gt;&lt;/span&gt;" style="text;html=1;align=center;verticalAlign=middle;resizable=0;points=[];autosize=1;strokeColor=none;fillColor=none;" parent="1" vertex="1">
          <mxGeometry x="2179" y="2139" width="217" height="36" as="geometry" />
        </mxCell>
        <mxCell id="AUimS9okSakmVEjvTTLS-183" value="&lt;font style=&quot;font-size: 20px;&quot;&gt;&lt;b&gt;updateCalender()&lt;/b&gt;&lt;/font&gt;" style="text;html=1;align=center;verticalAlign=middle;resizable=0;points=[];autosize=1;strokeColor=none;fillColor=none;" parent="1" vertex="1">
          <mxGeometry x="2452" y="2177" width="182" height="36" as="geometry" />
        </mxCell>
        <mxCell id="AUimS9okSakmVEjvTTLS-184" value="&lt;font style=&quot;font-size: 20px;&quot;&gt;&lt;b&gt;ok&lt;/b&gt;&lt;/font&gt;" style="text;html=1;align=center;verticalAlign=middle;resizable=0;points=[];autosize=1;strokeColor=none;fillColor=none;" parent="1" vertex="1">
          <mxGeometry x="2267" y="2240" width="41" height="36" as="geometry" />
        </mxCell>
        <mxCell id="AUimS9okSakmVEjvTTLS-185" value="&lt;font style=&quot;font-size: 18px;&quot;&gt;&lt;b style=&quot;&quot;&gt;Post Event Calender&lt;/b&gt;&lt;/font&gt;" style="rounded=1;whiteSpace=wrap;html=1;" parent="1" vertex="1">
          <mxGeometry x="2055" y="1954" width="475" height="60" as="geometry" />
        </mxCell>
        <mxCell id="AUimS9okSakmVEjvTTLS-188" value="" style="rounded=0;whiteSpace=wrap;html=1;" parent="1" vertex="1">
          <mxGeometry x="1974" y="2509" width="771" height="491" as="geometry" />
        </mxCell>
        <mxCell id="AUimS9okSakmVEjvTTLS-189" value="" style="endArrow=none;html=1;rounded=0;startArrow=classic;startFill=1;strokeWidth=2;" parent="1" edge="1">
          <mxGeometry width="50" height="50" relative="1" as="geometry">
            <mxPoint x="2451.5" y="2742" as="sourcePoint" />
            <mxPoint x="2127.710144927536" y="2742" as="targetPoint" />
          </mxGeometry>
        </mxCell>
        <mxCell id="AUimS9okSakmVEjvTTLS-191" value="" style="endArrow=none;html=1;rounded=0;dashed=1;startArrow=classic;startFill=1;strokeWidth=2;" parent="1" edge="1">
          <mxGeometry width="50" height="50" relative="1" as="geometry">
            <mxPoint x="2127.2" y="2845" as="sourcePoint" />
            <mxPoint x="2452" y="2845" as="targetPoint" />
          </mxGeometry>
        </mxCell>
        <mxCell id="AUimS9okSakmVEjvTTLS-192" value="&lt;font style=&quot;font-size: 19px;&quot;&gt;:Constituency Connect System&lt;/font&gt;" style="shape=umlLifeline;perimeter=lifelinePerimeter;whiteSpace=wrap;html=1;container=1;dropTarget=0;collapsible=0;recursiveResize=0;outlineConnect=0;portConstraint=eastwest;newEdgeStyle={&quot;curved&quot;:0,&quot;rounded&quot;:0};strokeWidth=2;size=50;" parent="1" vertex="1">
          <mxGeometry x="2365" y="2641" width="175" height="226" as="geometry" />
        </mxCell>
        <mxCell id="AUimS9okSakmVEjvTTLS-193" value="" style="group;strokeWidth=2;" parent="1" vertex="1" connectable="0">
          <mxGeometry x="2073" y="2615" width="129" height="256" as="geometry" />
        </mxCell>
        <mxCell id="AUimS9okSakmVEjvTTLS-194" value="" style="shape=umlLifeline;perimeter=lifelinePerimeter;whiteSpace=wrap;html=1;container=1;dropTarget=0;collapsible=0;recursiveResize=0;outlineConnect=0;portConstraint=eastwest;newEdgeStyle={&quot;curved&quot;:0,&quot;rounded&quot;:0};participant=umlActor;strokeWidth=2;" parent="AUimS9okSakmVEjvTTLS-193" vertex="1">
          <mxGeometry x="44" width="20" height="256" as="geometry" />
        </mxCell>
        <mxCell id="AUimS9okSakmVEjvTTLS-195" value="&lt;font style=&quot;font-size: 19px;&quot;&gt;Representative&lt;/font&gt;" style="text;html=1;align=center;verticalAlign=middle;resizable=0;points=[];autosize=1;strokeColor=default;fillColor=default;strokeWidth=2;" parent="AUimS9okSakmVEjvTTLS-193" vertex="1">
          <mxGeometry x="-9" y="39.974054663285436" width="146" height="35" as="geometry" />
        </mxCell>
        <mxCell id="AUimS9okSakmVEjvTTLS-196" value="&lt;span style=&quot;font-size: 20px;&quot;&gt;&lt;b&gt;designCampaign()&lt;/b&gt;&lt;/span&gt;" style="text;html=1;align=center;verticalAlign=middle;resizable=0;points=[];autosize=1;strokeColor=none;fillColor=none;" parent="1" vertex="1">
          <mxGeometry x="2192" y="2709" width="192" height="36" as="geometry" />
        </mxCell>
        <mxCell id="AUimS9okSakmVEjvTTLS-198" value="&lt;font style=&quot;font-size: 20px;&quot;&gt;&lt;b&gt;confirmation&lt;/b&gt;&lt;/font&gt;" style="text;html=1;align=center;verticalAlign=middle;resizable=0;points=[];autosize=1;strokeColor=none;fillColor=none;" parent="1" vertex="1">
          <mxGeometry x="2218" y="2810" width="139" height="36" as="geometry" />
        </mxCell>
        <mxCell id="AUimS9okSakmVEjvTTLS-199" value="&lt;font style=&quot;font-size: 18px;&quot;&gt;&lt;b style=&quot;&quot;&gt;Run Awareness Campaign&lt;/b&gt;&lt;/font&gt;" style="rounded=1;whiteSpace=wrap;html=1;" parent="1" vertex="1">
          <mxGeometry x="2055" y="2524" width="475" height="60" as="geometry" />
        </mxCell>
        <mxCell id="AUimS9okSakmVEjvTTLS-200" value="" style="endArrow=none;html=1;rounded=0;startArrow=classic;startFill=1;strokeWidth=2;" parent="1" edge="1">
          <mxGeometry width="50" height="50" relative="1" as="geometry">
            <mxPoint x="2451.5" y="2792" as="sourcePoint" />
            <mxPoint x="2127.710144927536" y="2792" as="targetPoint" />
          </mxGeometry>
        </mxCell>
        <mxCell id="AUimS9okSakmVEjvTTLS-201" value="&lt;span style=&quot;font-size: 20px;&quot;&gt;&lt;b&gt;publishCampaign()&lt;/b&gt;&lt;/span&gt;" style="text;html=1;align=center;verticalAlign=middle;resizable=0;points=[];autosize=1;strokeColor=none;fillColor=none;" parent="1" vertex="1">
          <mxGeometry x="2186" y="2758" width="199" height="36" as="geometry" />
        </mxCell>
        <mxCell id="AUimS9okSakmVEjvTTLS-202" value="" style="rounded=0;whiteSpace=wrap;html=1;" parent="1" vertex="1">
          <mxGeometry x="1974" y="3059" width="771" height="491" as="geometry" />
        </mxCell>
        <mxCell id="AUimS9okSakmVEjvTTLS-203" value="" style="endArrow=none;html=1;rounded=0;startArrow=classic;startFill=1;strokeWidth=2;" parent="1" edge="1">
          <mxGeometry width="50" height="50" relative="1" as="geometry">
            <mxPoint x="2451.5" y="3292" as="sourcePoint" />
            <mxPoint x="2127.710144927536" y="3292" as="targetPoint" />
          </mxGeometry>
        </mxCell>
        <mxCell id="AUimS9okSakmVEjvTTLS-204" value="" style="endArrow=none;html=1;rounded=0;dashed=1;startArrow=classic;startFill=1;strokeWidth=2;" parent="1" edge="1">
          <mxGeometry width="50" height="50" relative="1" as="geometry">
            <mxPoint x="2127.2" y="3375" as="sourcePoint" />
            <mxPoint x="2452" y="3375" as="targetPoint" />
          </mxGeometry>
        </mxCell>
        <mxCell id="AUimS9okSakmVEjvTTLS-205" value="&lt;font style=&quot;font-size: 19px;&quot;&gt;:Constituency Connect System&lt;/font&gt;" style="shape=umlLifeline;perimeter=lifelinePerimeter;whiteSpace=wrap;html=1;container=1;dropTarget=0;collapsible=0;recursiveResize=0;outlineConnect=0;portConstraint=eastwest;newEdgeStyle={&quot;curved&quot;:0,&quot;rounded&quot;:0};strokeWidth=2;size=50;" parent="1" vertex="1">
          <mxGeometry x="2365" y="3191" width="175" height="195" as="geometry" />
        </mxCell>
        <mxCell id="AUimS9okSakmVEjvTTLS-206" value="" style="group;strokeWidth=2;" parent="1" vertex="1" connectable="0">
          <mxGeometry x="2073" y="3165" width="129" height="223" as="geometry" />
        </mxCell>
        <mxCell id="AUimS9okSakmVEjvTTLS-207" value="" style="shape=umlLifeline;perimeter=lifelinePerimeter;whiteSpace=wrap;html=1;container=1;dropTarget=0;collapsible=0;recursiveResize=0;outlineConnect=0;portConstraint=eastwest;newEdgeStyle={&quot;curved&quot;:0,&quot;rounded&quot;:0};participant=umlActor;strokeWidth=2;" parent="AUimS9okSakmVEjvTTLS-206" vertex="1">
          <mxGeometry x="44" width="20" height="223" as="geometry" />
        </mxCell>
        <mxCell id="AUimS9okSakmVEjvTTLS-208" value="&lt;font style=&quot;font-size: 19px;&quot;&gt;Representative&lt;/font&gt;" style="text;html=1;align=center;verticalAlign=middle;resizable=0;points=[];autosize=1;strokeColor=default;fillColor=default;strokeWidth=2;" parent="AUimS9okSakmVEjvTTLS-206" vertex="1">
          <mxGeometry x="-9" y="40.8211491793463" width="146" height="35" as="geometry" />
        </mxCell>
        <mxCell id="AUimS9okSakmVEjvTTLS-209" value="&lt;span style=&quot;font-size: 20px;&quot;&gt;&lt;b&gt;viewComplaints()&lt;/b&gt;&lt;/span&gt;" style="text;html=1;align=center;verticalAlign=middle;resizable=0;points=[];autosize=1;strokeColor=none;fillColor=none;" parent="1" vertex="1">
          <mxGeometry x="2196" y="3259" width="184" height="36" as="geometry" />
        </mxCell>
        <mxCell id="AUimS9okSakmVEjvTTLS-210" value="&lt;font style=&quot;font-size: 20px;&quot;&gt;&lt;b&gt;displayComplaints()&lt;/b&gt;&lt;/font&gt;" style="text;html=1;align=center;verticalAlign=middle;resizable=0;points=[];autosize=1;strokeColor=none;fillColor=none;" parent="1" vertex="1">
          <mxGeometry x="2183" y="3340" width="209" height="36" as="geometry" />
        </mxCell>
        <mxCell id="AUimS9okSakmVEjvTTLS-211" value="&lt;font style=&quot;font-size: 18px;&quot;&gt;&lt;b style=&quot;&quot;&gt;View Complaints&lt;/b&gt;&lt;/font&gt;" style="rounded=1;whiteSpace=wrap;html=1;" parent="1" vertex="1">
          <mxGeometry x="2055" y="3074" width="475" height="60" as="geometry" />
        </mxCell>
        <mxCell id="AUimS9okSakmVEjvTTLS-214" value="" style="endArrow=classic;html=1;rounded=1;curved=0;strokeWidth=2;" parent="1" edge="1">
          <mxGeometry width="50" height="50" relative="1" as="geometry">
            <mxPoint x="2453.3076923076924" y="3314" as="sourcePoint" />
            <mxPoint x="2453.3076923076924" y="3349" as="targetPoint" />
            <Array as="points">
              <mxPoint x="2488" y="3314" />
              <mxPoint x="2488" y="3332" />
              <mxPoint x="2488" y="3349" />
              <mxPoint x="2479" y="3349" />
            </Array>
          </mxGeometry>
        </mxCell>
        <mxCell id="AUimS9okSakmVEjvTTLS-215" value="&lt;font style=&quot;font-size: 20px;&quot;&gt;&lt;b&gt;retrieveComplaints()&lt;/b&gt;&lt;/font&gt;" style="text;html=1;align=center;verticalAlign=middle;resizable=0;points=[];autosize=1;strokeColor=none;fillColor=none;" parent="1" vertex="1">
          <mxGeometry x="2452" y="3278" width="213" height="36" as="geometry" />
        </mxCell>
        <mxCell id="AUimS9okSakmVEjvTTLS-216" value="" style="rounded=0;whiteSpace=wrap;html=1;" parent="1" vertex="1">
          <mxGeometry x="1962.5" y="3619" width="801.5" height="627" as="geometry" />
        </mxCell>
        <mxCell id="AUimS9okSakmVEjvTTLS-217" value="" style="endArrow=none;html=1;rounded=0;startArrow=classic;startFill=1;strokeWidth=2;" parent="1" edge="1">
          <mxGeometry width="50" height="50" relative="1" as="geometry">
            <mxPoint x="2451.5" y="3842" as="sourcePoint" />
            <mxPoint x="2127.710144927536" y="3842" as="targetPoint" />
          </mxGeometry>
        </mxCell>
        <mxCell id="AUimS9okSakmVEjvTTLS-218" value="" style="endArrow=none;html=1;rounded=0;dashed=1;startArrow=classic;startFill=1;strokeWidth=2;" parent="1" edge="1">
          <mxGeometry width="50" height="50" relative="1" as="geometry">
            <mxPoint x="2127.2" y="3925" as="sourcePoint" />
            <mxPoint x="2452" y="3925" as="targetPoint" />
          </mxGeometry>
        </mxCell>
        <mxCell id="AUimS9okSakmVEjvTTLS-219" value="&lt;font style=&quot;font-size: 19px;&quot;&gt;:Constituency Connect System&lt;/font&gt;" style="shape=umlLifeline;perimeter=lifelinePerimeter;whiteSpace=wrap;html=1;container=1;dropTarget=0;collapsible=0;recursiveResize=0;outlineConnect=0;portConstraint=eastwest;newEdgeStyle={&quot;curved&quot;:0,&quot;rounded&quot;:0};strokeWidth=2;size=50;" parent="1" vertex="1">
          <mxGeometry x="2365" y="3741" width="175" height="406" as="geometry" />
        </mxCell>
        <mxCell id="AUimS9okSakmVEjvTTLS-220" value="" style="group;strokeWidth=2;" parent="1" vertex="1" connectable="0">
          <mxGeometry x="2073" y="3715" width="129" height="432" as="geometry" />
        </mxCell>
        <mxCell id="AUimS9okSakmVEjvTTLS-221" value="" style="shape=umlLifeline;perimeter=lifelinePerimeter;whiteSpace=wrap;html=1;container=1;dropTarget=0;collapsible=0;recursiveResize=0;outlineConnect=0;portConstraint=eastwest;newEdgeStyle={&quot;curved&quot;:0,&quot;rounded&quot;:0};participant=umlActor;strokeWidth=2;" parent="AUimS9okSakmVEjvTTLS-220" vertex="1">
          <mxGeometry x="44" width="20" height="431.99999999999994" as="geometry" />
        </mxCell>
        <mxCell id="AUimS9okSakmVEjvTTLS-222" value="&lt;font style=&quot;font-size: 19px;&quot;&gt;Representative&lt;/font&gt;" style="text;html=1;align=center;verticalAlign=middle;resizable=0;points=[];autosize=1;strokeColor=default;fillColor=default;strokeWidth=2;" parent="AUimS9okSakmVEjvTTLS-220" vertex="1">
          <mxGeometry x="-9" y="41.07953562994442" width="146" height="35" as="geometry" />
        </mxCell>
        <mxCell id="AUimS9okSakmVEjvTTLS-223" value="&lt;span style=&quot;font-size: 20px;&quot;&gt;&lt;b&gt;selectComplaints(id)&lt;/b&gt;&lt;/span&gt;" style="text;html=1;align=center;verticalAlign=middle;resizable=0;points=[];autosize=1;strokeColor=none;fillColor=none;" parent="1" vertex="1">
          <mxGeometry x="2181" y="3809" width="215" height="36" as="geometry" />
        </mxCell>
        <mxCell id="AUimS9okSakmVEjvTTLS-224" value="&lt;font style=&quot;font-size: 20px;&quot;&gt;&lt;b&gt;displayComplaint()&lt;/b&gt;&lt;/font&gt;" style="text;html=1;align=center;verticalAlign=middle;resizable=0;points=[];autosize=1;strokeColor=none;fillColor=none;" parent="1" vertex="1">
          <mxGeometry x="2189" y="3890" width="198" height="36" as="geometry" />
        </mxCell>
        <mxCell id="AUimS9okSakmVEjvTTLS-225" value="&lt;font style=&quot;font-size: 18px;&quot;&gt;&lt;b style=&quot;&quot;&gt;Update Complaint Status&lt;/b&gt;&lt;/font&gt;" style="rounded=1;whiteSpace=wrap;html=1;" parent="1" vertex="1">
          <mxGeometry x="2055" y="3624" width="475" height="60" as="geometry" />
        </mxCell>
        <mxCell id="AUimS9okSakmVEjvTTLS-226" value="" style="endArrow=classic;html=1;rounded=1;curved=0;strokeWidth=2;" parent="1" edge="1">
          <mxGeometry width="50" height="50" relative="1" as="geometry">
            <mxPoint x="2453.3076923076924" y="3864" as="sourcePoint" />
            <mxPoint x="2453.3076923076924" y="3899" as="targetPoint" />
            <Array as="points">
              <mxPoint x="2488" y="3864" />
              <mxPoint x="2488" y="3882" />
              <mxPoint x="2488" y="3899" />
              <mxPoint x="2479" y="3899" />
            </Array>
          </mxGeometry>
        </mxCell>
        <mxCell id="AUimS9okSakmVEjvTTLS-227" value="&lt;font style=&quot;font-size: 20px;&quot;&gt;&lt;b&gt;retrieveComplaintDetails()&lt;/b&gt;&lt;/font&gt;" style="text;html=1;align=center;verticalAlign=middle;resizable=0;points=[];autosize=1;strokeColor=none;fillColor=none;" parent="1" vertex="1">
          <mxGeometry x="2452" y="3829" width="267" height="36" as="geometry" />
        </mxCell>
        <mxCell id="AUimS9okSakmVEjvTTLS-229" value="" style="endArrow=none;html=1;rounded=0;startArrow=classic;startFill=1;strokeWidth=2;" parent="1" edge="1">
          <mxGeometry width="50" height="50" relative="1" as="geometry">
            <mxPoint x="2451.5" y="3972" as="sourcePoint" />
            <mxPoint x="2127.710144927536" y="3972" as="targetPoint" />
          </mxGeometry>
        </mxCell>
        <mxCell id="AUimS9okSakmVEjvTTLS-230" value="&lt;span style=&quot;font-size: 20px;&quot;&gt;&lt;b&gt;updateComplaintStatus(id)&lt;/b&gt;&lt;/span&gt;" style="text;html=1;align=center;verticalAlign=middle;resizable=0;points=[];autosize=1;strokeColor=none;fillColor=none;" parent="1" vertex="1">
          <mxGeometry x="2152" y="3939" width="274" height="36" as="geometry" />
        </mxCell>
        <mxCell id="AUimS9okSakmVEjvTTLS-231" value="" style="endArrow=classic;html=1;rounded=1;curved=0;strokeWidth=2;" parent="1" edge="1">
          <mxGeometry width="50" height="50" relative="1" as="geometry">
            <mxPoint x="2453.3076923076924" y="4004" as="sourcePoint" />
            <mxPoint x="2453.3076923076924" y="4039" as="targetPoint" />
            <Array as="points">
              <mxPoint x="2488" y="4004" />
              <mxPoint x="2488" y="4022" />
              <mxPoint x="2488" y="4039" />
              <mxPoint x="2479" y="4039" />
            </Array>
          </mxGeometry>
        </mxCell>
        <mxCell id="AUimS9okSakmVEjvTTLS-232" value="&lt;font style=&quot;font-size: 20px;&quot;&gt;&lt;b&gt;saveComplaintStatus()&lt;/b&gt;&lt;/font&gt;" style="text;html=1;align=center;verticalAlign=middle;resizable=0;points=[];autosize=1;strokeColor=none;fillColor=none;" parent="1" vertex="1">
          <mxGeometry x="2452" y="3969" width="235" height="36" as="geometry" />
        </mxCell>
        <mxCell id="AUimS9okSakmVEjvTTLS-233" value="" style="endArrow=classic;html=1;rounded=1;curved=0;strokeWidth=2;" parent="1" edge="1">
          <mxGeometry width="50" height="50" relative="1" as="geometry">
            <mxPoint x="2453.3076923076924" y="4074" as="sourcePoint" />
            <mxPoint x="2453.3076923076924" y="4109" as="targetPoint" />
            <Array as="points">
              <mxPoint x="2488" y="4074" />
              <mxPoint x="2488" y="4092" />
              <mxPoint x="2488" y="4109" />
              <mxPoint x="2479" y="4109" />
            </Array>
          </mxGeometry>
        </mxCell>
        <mxCell id="AUimS9okSakmVEjvTTLS-234" value="&lt;font style=&quot;font-size: 20px;&quot;&gt;&lt;b&gt;notifyConstituent()&lt;/b&gt;&lt;/font&gt;" style="text;html=1;align=center;verticalAlign=middle;resizable=0;points=[];autosize=1;strokeColor=none;fillColor=none;" parent="1" vertex="1">
          <mxGeometry x="2453" y="4039" width="197" height="36" as="geometry" />
        </mxCell>
        <mxCell id="AUimS9okSakmVEjvTTLS-235" value="" style="endArrow=none;html=1;rounded=0;dashed=1;startArrow=classic;startFill=1;strokeWidth=2;" parent="1" edge="1">
          <mxGeometry width="50" height="50" relative="1" as="geometry">
            <mxPoint x="2127.2" y="4135" as="sourcePoint" />
            <mxPoint x="2452" y="4135" as="targetPoint" />
          </mxGeometry>
        </mxCell>
        <mxCell id="AUimS9okSakmVEjvTTLS-236" value="&lt;font style=&quot;font-size: 20px;&quot;&gt;&lt;b&gt;ok&lt;/b&gt;&lt;/font&gt;" style="text;html=1;align=center;verticalAlign=middle;resizable=0;points=[];autosize=1;strokeColor=none;fillColor=none;" parent="1" vertex="1">
          <mxGeometry x="2268" y="4100" width="41" height="36" as="geometry" />
        </mxCell>
        <mxCell id="AUimS9okSakmVEjvTTLS-250" value="" style="rounded=0;whiteSpace=wrap;html=1;" parent="1" vertex="1">
          <mxGeometry x="718" y="5586" width="829" height="719" as="geometry" />
        </mxCell>
        <mxCell id="AUimS9okSakmVEjvTTLS-251" value="&lt;font style=&quot;font-size: 19px;&quot;&gt;:Constituency Connect System&lt;/font&gt;" style="shape=umlLifeline;perimeter=lifelinePerimeter;whiteSpace=wrap;html=1;container=1;dropTarget=0;collapsible=0;recursiveResize=0;outlineConnect=0;portConstraint=eastwest;newEdgeStyle={&quot;curved&quot;:0,&quot;rounded&quot;:0};strokeWidth=2;size=50;" parent="1" vertex="1">
          <mxGeometry x="1091" y="5742" width="175" height="447" as="geometry" />
        </mxCell>
        <mxCell id="AUimS9okSakmVEjvTTLS-252" value="" style="group;strokeWidth=2;" parent="1" vertex="1" connectable="0">
          <mxGeometry x="799" y="5716" width="114" height="514" as="geometry" />
        </mxCell>
        <mxCell id="AUimS9okSakmVEjvTTLS-253" value="" style="shape=umlLifeline;perimeter=lifelinePerimeter;whiteSpace=wrap;html=1;container=1;dropTarget=0;collapsible=0;recursiveResize=0;outlineConnect=0;portConstraint=eastwest;newEdgeStyle={&quot;curved&quot;:0,&quot;rounded&quot;:0};participant=umlActor;strokeWidth=2;" parent="AUimS9okSakmVEjvTTLS-252" vertex="1">
          <mxGeometry x="44" width="20" height="483" as="geometry" />
        </mxCell>
        <mxCell id="AUimS9okSakmVEjvTTLS-254" value="&lt;font style=&quot;font-size: 19px;&quot;&gt;Constituent&lt;/font&gt;" style="text;html=1;align=center;verticalAlign=middle;resizable=0;points=[];autosize=1;strokeColor=default;fillColor=default;strokeWidth=2;" parent="AUimS9okSakmVEjvTTLS-252" vertex="1">
          <mxGeometry x="-1" y="39.723353057199205" width="114" height="35" as="geometry" />
        </mxCell>
        <mxCell id="AUimS9okSakmVEjvTTLS-255" value="" style="endArrow=none;html=1;rounded=0;startArrow=classic;startFill=1;strokeWidth=2;" parent="1" source="AUimS9okSakmVEjvTTLS-251" edge="1">
          <mxGeometry width="50" height="50" relative="1" as="geometry">
            <mxPoint x="1098.5" y="5855" as="sourcePoint" />
            <mxPoint x="853.1304347826087" y="5855" as="targetPoint" />
          </mxGeometry>
        </mxCell>
        <mxCell id="AUimS9okSakmVEjvTTLS-256" value="&lt;font style=&quot;font-size: 20px;&quot;&gt;&lt;b&gt;joinMeeting()&lt;/b&gt;&lt;/font&gt;" style="text;html=1;align=center;verticalAlign=middle;resizable=0;points=[];autosize=1;strokeColor=none;fillColor=none;" parent="1" vertex="1">
          <mxGeometry x="943" y="5820" width="142" height="36" as="geometry" />
        </mxCell>
        <mxCell id="AUimS9okSakmVEjvTTLS-257" value="" style="endArrow=none;html=1;rounded=0;dashed=1;startArrow=classic;startFill=1;strokeWidth=2;" parent="1" edge="1">
          <mxGeometry width="50" height="50" relative="1" as="geometry">
            <mxPoint x="853.3103448275863" y="6014" as="sourcePoint" />
            <mxPoint x="1177.5000000000002" y="6014" as="targetPoint" />
          </mxGeometry>
        </mxCell>
        <mxCell id="AUimS9okSakmVEjvTTLS-258" value="&lt;font style=&quot;font-size: 20px;&quot;&gt;&lt;b&gt;validateAccess()&lt;/b&gt;&lt;/font&gt;" style="text;html=1;align=center;verticalAlign=middle;resizable=0;points=[];autosize=1;strokeColor=none;fillColor=none;" parent="1" vertex="1">
          <mxGeometry x="1179" y="5844" width="176" height="36" as="geometry" />
        </mxCell>
        <mxCell id="AUimS9okSakmVEjvTTLS-259" value="" style="endArrow=classic;html=1;rounded=1;curved=0;strokeWidth=2;" parent="1" edge="1">
          <mxGeometry width="50" height="50" relative="1" as="geometry">
            <mxPoint x="1179.3076923076924" y="5880" as="sourcePoint" />
            <mxPoint x="1179.3076923076924" y="5915" as="targetPoint" />
            <Array as="points">
              <mxPoint x="1214" y="5880" />
              <mxPoint x="1214" y="5898" />
              <mxPoint x="1214" y="5915" />
              <mxPoint x="1205" y="5915" />
            </Array>
          </mxGeometry>
        </mxCell>
        <mxCell id="AUimS9okSakmVEjvTTLS-260" value="&lt;span style=&quot;font-size: 20px;&quot;&gt;&lt;b&gt;meeting link&lt;/b&gt;&lt;/span&gt;" style="text;html=1;align=center;verticalAlign=middle;resizable=0;points=[];autosize=1;strokeColor=none;fillColor=none;" parent="1" vertex="1">
          <mxGeometry x="951.5" y="5981" width="135" height="36" as="geometry" />
        </mxCell>
        <mxCell id="AUimS9okSakmVEjvTTLS-261" value="&lt;font style=&quot;font-size: 18px;&quot;&gt;&lt;b style=&quot;&quot;&gt;Join Virtual Meetup&lt;/b&gt;&lt;/font&gt;" style="rounded=1;whiteSpace=wrap;html=1;" parent="1" vertex="1">
          <mxGeometry x="851.5" y="5601" width="475" height="60" as="geometry" />
        </mxCell>
        <mxCell id="AUimS9okSakmVEjvTTLS-263" value="&lt;font style=&quot;font-size: 20px;&quot;&gt;&lt;b&gt;getLink()&lt;/b&gt;&lt;/font&gt;" style="text;html=1;align=center;verticalAlign=middle;resizable=0;points=[];autosize=1;strokeColor=none;fillColor=none;" parent="1" vertex="1">
          <mxGeometry x="1176" y="5914" width="102" height="36" as="geometry" />
        </mxCell>
        <mxCell id="AUimS9okSakmVEjvTTLS-264" value="" style="endArrow=classic;html=1;rounded=1;curved=0;strokeWidth=2;" parent="1" edge="1">
          <mxGeometry width="50" height="50" relative="1" as="geometry">
            <mxPoint x="1179.3076923076924" y="5950" as="sourcePoint" />
            <mxPoint x="1179.3076923076924" y="5985" as="targetPoint" />
            <Array as="points">
              <mxPoint x="1214" y="5950" />
              <mxPoint x="1214" y="5968" />
              <mxPoint x="1214" y="5985" />
              <mxPoint x="1205" y="5985" />
            </Array>
          </mxGeometry>
        </mxCell>
        <mxCell id="AUimS9okSakmVEjvTTLS-267" value="" style="endArrow=none;html=1;rounded=0;startArrow=classic;startFill=1;strokeWidth=2;" parent="1" edge="1" source="AUimS9okSakmVEjvTTLS-251">
          <mxGeometry width="50" height="50" relative="1" as="geometry">
            <mxPoint x="1507" y="6085" as="sourcePoint" />
            <mxPoint x="853.1304347826087" y="6085" as="targetPoint" />
          </mxGeometry>
        </mxCell>
        <mxCell id="AUimS9okSakmVEjvTTLS-268" value="&lt;font style=&quot;font-size: 20px;&quot;&gt;&lt;b&gt;joinMeeting()&lt;/b&gt;&lt;/font&gt;" style="text;html=1;align=center;verticalAlign=middle;resizable=0;points=[];autosize=1;strokeColor=none;fillColor=none;" parent="1" vertex="1">
          <mxGeometry x="943" y="6048" width="142" height="36" as="geometry" />
        </mxCell>
        <mxCell id="AUimS9okSakmVEjvTTLS-269" value="&lt;font style=&quot;font-size: 20px;&quot;&gt;&lt;b&gt;validateAccess()&lt;/b&gt;&lt;/font&gt;" style="text;html=1;align=center;verticalAlign=middle;resizable=0;points=[];autosize=1;strokeColor=none;fillColor=none;" parent="1" vertex="1">
          <mxGeometry x="1178" y="6084" width="176" height="36" as="geometry" />
        </mxCell>
        <mxCell id="AUimS9okSakmVEjvTTLS-270" value="" style="endArrow=classic;html=1;rounded=1;curved=0;strokeWidth=2;" parent="1" edge="1">
          <mxGeometry width="50" height="50" relative="1" as="geometry">
            <mxPoint x="1179.3076923076924" y="6120" as="sourcePoint" />
            <mxPoint x="1179.3076923076924" y="6155" as="targetPoint" />
            <Array as="points">
              <mxPoint x="1214" y="6120" />
              <mxPoint x="1214" y="6138" />
              <mxPoint x="1214" y="6155" />
              <mxPoint x="1205" y="6155" />
            </Array>
          </mxGeometry>
        </mxCell>
        <mxCell id="AUimS9okSakmVEjvTTLS-271" value="" style="endArrow=none;html=1;rounded=0;dashed=1;startArrow=classic;startFill=1;strokeWidth=2;" parent="1" target="AUimS9okSakmVEjvTTLS-251" edge="1">
          <mxGeometry width="50" height="50" relative="1" as="geometry">
            <mxPoint x="853.3103448275863" y="6174" as="sourcePoint" />
            <mxPoint x="1177.5000000000002" y="6174" as="targetPoint" />
          </mxGeometry>
        </mxCell>
        <mxCell id="AUimS9okSakmVEjvTTLS-272" value="&lt;span style=&quot;font-size: 20px;&quot;&gt;&lt;b&gt;ok&lt;/b&gt;&lt;/span&gt;" style="text;html=1;align=center;verticalAlign=middle;resizable=0;points=[];autosize=1;strokeColor=none;fillColor=none;" parent="1" vertex="1">
          <mxGeometry x="1001" y="6139" width="41" height="36" as="geometry" />
        </mxCell>
        <mxCell id="AUimS9okSakmVEjvTTLS-273" value="" style="rounded=0;whiteSpace=wrap;html=1;" parent="1" vertex="1">
          <mxGeometry x="2108" y="4466" width="659" height="597" as="geometry" />
        </mxCell>
        <mxCell id="AUimS9okSakmVEjvTTLS-284" value="&lt;font style=&quot;font-size: 18px;&quot;&gt;&lt;b style=&quot;&quot;&gt;Arrange Virtual Meetup&lt;/b&gt;&lt;/font&gt;" style="rounded=1;whiteSpace=wrap;html=1;" parent="1" vertex="1">
          <mxGeometry x="2179" y="4474" width="475" height="60" as="geometry" />
        </mxCell>
        <mxCell id="55DdskKemfbNUu3O5WSg-15" value="&lt;b style=&quot;font-size: 20px;&quot;&gt;validateComplaintDetails()&lt;/b&gt;" style="text;html=1;align=center;verticalAlign=middle;resizable=0;points=[];autosize=1;strokeColor=none;fillColor=none;" parent="1" vertex="1">
          <mxGeometry x="1261" y="944" width="269" height="36" as="geometry" />
        </mxCell>
        <mxCell id="55DdskKemfbNUu3O5WSg-16" value="" style="endArrow=classic;html=1;rounded=1;curved=0;strokeWidth=2;" parent="1" edge="1">
          <mxGeometry width="50" height="50" relative="1" as="geometry">
            <mxPoint x="1261.3076923076924" y="979" as="sourcePoint" />
            <mxPoint x="1261.3076923076924" y="1014" as="targetPoint" />
            <Array as="points">
              <mxPoint x="1296" y="979" />
              <mxPoint x="1296" y="997" />
              <mxPoint x="1296" y="1014" />
              <mxPoint x="1287" y="1014" />
            </Array>
          </mxGeometry>
        </mxCell>
        <mxCell id="AUimS9okSakmVEjvTTLS-274" value="&lt;font style=&quot;font-size: 19px;&quot;&gt;:Constituency Connect System&lt;/font&gt;" style="shape=umlLifeline;perimeter=lifelinePerimeter;whiteSpace=wrap;html=1;container=1;dropTarget=0;collapsible=0;recursiveResize=0;outlineConnect=0;portConstraint=eastwest;newEdgeStyle={&quot;curved&quot;:0,&quot;rounded&quot;:0};strokeWidth=2;size=50;" parent="1" vertex="1">
          <mxGeometry x="2426" y="4630" width="175" height="368" as="geometry" />
        </mxCell>
        <mxCell id="AUimS9okSakmVEjvTTLS-276" value="" style="shape=umlLifeline;perimeter=lifelinePerimeter;whiteSpace=wrap;html=1;container=1;dropTarget=0;collapsible=0;recursiveResize=0;outlineConnect=0;portConstraint=eastwest;newEdgeStyle={&quot;curved&quot;:0,&quot;rounded&quot;:0};participant=umlActor;strokeWidth=2;" parent="1" vertex="1">
          <mxGeometry x="2178" y="4604" width="20" height="395" as="geometry" />
        </mxCell>
        <mxCell id="AUimS9okSakmVEjvTTLS-277" value="&lt;font style=&quot;font-size: 19px;&quot;&gt;Representative&lt;/font&gt;" style="text;html=1;align=center;verticalAlign=middle;resizable=0;points=[];autosize=1;strokeColor=default;fillColor=default;strokeWidth=2;" parent="1" vertex="1">
          <mxGeometry x="2126" y="4643.723353057199" width="146" height="35" as="geometry" />
        </mxCell>
        <mxCell id="AUimS9okSakmVEjvTTLS-278" value="" style="endArrow=none;html=1;rounded=0;startArrow=classic;startFill=1;strokeWidth=2;" parent="1" source="AUimS9okSakmVEjvTTLS-274" edge="1">
          <mxGeometry width="50" height="50" relative="1" as="geometry">
            <mxPoint x="2433.5" y="4743" as="sourcePoint" />
            <mxPoint x="2188.130434782609" y="4743" as="targetPoint" />
          </mxGeometry>
        </mxCell>
        <mxCell id="AUimS9okSakmVEjvTTLS-279" value="&lt;font style=&quot;font-size: 20px;&quot;&gt;&lt;b&gt;scheduleMeetup()&lt;/b&gt;&lt;/font&gt;" style="text;html=1;align=center;verticalAlign=middle;resizable=0;points=[];autosize=1;strokeColor=none;fillColor=none;" parent="1" vertex="1">
          <mxGeometry x="2255" y="4708" width="188" height="36" as="geometry" />
        </mxCell>
        <mxCell id="AUimS9okSakmVEjvTTLS-280" value="" style="endArrow=none;html=1;rounded=0;dashed=1;startArrow=classic;startFill=1;strokeWidth=2;" parent="1" edge="1" source="AUimS9okSakmVEjvTTLS-276">
          <mxGeometry width="50" height="50" relative="1" as="geometry">
            <mxPoint x="2188.310344827586" y="4972" as="sourcePoint" />
            <mxPoint x="2512.5" y="4972" as="targetPoint" />
          </mxGeometry>
        </mxCell>
        <mxCell id="AUimS9okSakmVEjvTTLS-281" value="&lt;font style=&quot;font-size: 20px;&quot;&gt;&lt;b&gt;validateDetails()&lt;/b&gt;&lt;/font&gt;" style="text;html=1;align=center;verticalAlign=middle;resizable=0;points=[];autosize=1;strokeColor=none;fillColor=none;" parent="1" vertex="1">
          <mxGeometry x="2514" y="4732" width="171" height="36" as="geometry" />
        </mxCell>
        <mxCell id="AUimS9okSakmVEjvTTLS-282" value="" style="endArrow=classic;html=1;rounded=1;curved=0;strokeWidth=2;" parent="1" edge="1">
          <mxGeometry width="50" height="50" relative="1" as="geometry">
            <mxPoint x="2514.3076923076924" y="4768" as="sourcePoint" />
            <mxPoint x="2514.3076923076924" y="4803" as="targetPoint" />
            <Array as="points">
              <mxPoint x="2549" y="4768" />
              <mxPoint x="2549" y="4786" />
              <mxPoint x="2549" y="4803" />
              <mxPoint x="2540" y="4803" />
            </Array>
          </mxGeometry>
        </mxCell>
        <mxCell id="AUimS9okSakmVEjvTTLS-295" value="&lt;font style=&quot;font-size: 20px;&quot;&gt;&lt;b&gt;generateMeetingLink()&lt;/b&gt;&lt;/font&gt;" style="text;html=1;align=center;verticalAlign=middle;resizable=0;points=[];autosize=1;strokeColor=none;fillColor=none;" parent="1" vertex="1">
          <mxGeometry x="2514" y="4805" width="231" height="36" as="geometry" />
        </mxCell>
        <mxCell id="AUimS9okSakmVEjvTTLS-298" value="&lt;font style=&quot;font-size: 20px;&quot;&gt;&lt;b&gt;saveMeetupDetails()&lt;/b&gt;&lt;/font&gt;" style="text;html=1;align=center;verticalAlign=middle;resizable=0;points=[];autosize=1;strokeColor=none;fillColor=none;" parent="1" vertex="1">
          <mxGeometry x="2514" y="4880" width="211" height="36" as="geometry" />
        </mxCell>
        <mxCell id="AUimS9okSakmVEjvTTLS-299" value="" style="endArrow=classic;html=1;rounded=1;curved=0;strokeWidth=2;" parent="1" edge="1">
          <mxGeometry width="50" height="50" relative="1" as="geometry">
            <mxPoint x="2513.9976923076924" y="4843.5" as="sourcePoint" />
            <mxPoint x="2513.9976923076924" y="4878.5" as="targetPoint" />
            <Array as="points">
              <mxPoint x="2548.69" y="4843.5" />
              <mxPoint x="2548.69" y="4861.5" />
              <mxPoint x="2548.69" y="4878.5" />
              <mxPoint x="2539.69" y="4878.5" />
            </Array>
          </mxGeometry>
        </mxCell>
        <mxCell id="G_YeSc3T2bYquZeqpTTr-2" value="&lt;span style=&quot;font-size: 20px;&quot;&gt;&lt;b&gt;meeting link&lt;/b&gt;&lt;/span&gt;" style="text;html=1;align=center;verticalAlign=middle;resizable=0;points=[];autosize=1;strokeColor=none;fillColor=none;" vertex="1" parent="1">
          <mxGeometry x="2284" y="4932" width="135" height="36" as="geometry" />
        </mxCell>
        <mxCell id="G_YeSc3T2bYquZeqpTTr-4" value="" style="endArrow=classic;html=1;rounded=1;curved=0;strokeWidth=2;" edge="1" parent="1">
          <mxGeometry width="50" height="50" relative="1" as="geometry">
            <mxPoint x="2514.3076923076924" y="4914" as="sourcePoint" />
            <mxPoint x="2514.3076923076924" y="4949" as="targetPoint" />
            <Array as="points">
              <mxPoint x="2549" y="4914" />
              <mxPoint x="2549" y="4932" />
              <mxPoint x="2549" y="4949" />
              <mxPoint x="2540" y="4949" />
            </Array>
          </mxGeometry>
        </mxCell>
      </root>
    </mxGraphModel>
  </diagram>
</mxfile>
